<svg width="44" height="58" viewBox="0 0 44 58" fill="none" xmlns="http://www.w3.org/2000/svg">
<path d="M2.5 33.5V30.5V4.54261C2.5 3.8677 2.7297 3.21288 3.15131 2.68586V2.68586C3.95555 1.68056 5.31557 1.30731 6.52029 1.76127L13.125 4.25L19.75 7L29 10.5L30.6592 11.1222C32.0672 11.6502 33 12.9962 33 14.5V14.5V27V39.5L33.1688 43M2.5 33.5V33.5C1.57624 35.9634 2.08069 38.7351 3.81313 40.715L4.5 41.5L8.86262 45.8626C9.52396 46.524 10.5602 46.6266 11.3383 46.1078V46.1078C11.4459 46.0361 11.546 45.954 11.6374 45.8626L16 41.5L17.373 39.8981C18.4229 38.6733 19 37.1132 19 35.5V35.5V35.1514C19 34.4006 18.7778 33.6667 18.3613 33.042V33.042C18.1222 32.6833 17.8238 32.3678 17.4789 32.1092L17.0702 31.8026C16.3755 31.2816 15.5306 31 14.6623 31H14.1251C13.4047 31 12.7138 31.2862 12.2045 31.7955L12.1112 31.8888C12.0373 31.9627 11.9714 32.0443 11.9147 32.1322L11.1516 33.3141C10.7097 33.9985 9.65976 33.7988 9.5 33V33M2.5 33.5L2.7233 33.1491C4.28318 30.6979 7.83382 30.6197 9.5 33V33M27 42.5V41.5V18.5V18.5C27 17.5917 26.4538 16.7724 25.6154 16.4231L18 13.25L10.3846 10.0769C9.72593 9.80247 9 10.2864 9 11V11V29.5098C9 30.1683 9.06505 30.8252 9.19419 31.471L9.5 33M27 42.5L27.0998 42.4002C28.8591 40.6409 31.7879 40.9304 33.1688 43V43M27 42.5L26.5607 42.9393C25.8815 43.6185 25.5 44.5396 25.5 45.5V45.5V45.5C25.5 47.1183 26.0508 48.6885 27.0617 49.9522L27.5 50.5L31.5 54.5V54.5C32.8425 56.111 35.2785 56.2215 36.7613 54.7387L37 54.5L40.5 50.5L41.3789 49.4014C42.1046 48.4942 42.5 47.3671 42.5 46.2054V46.0395C42.5 45.0402 42.1759 44.0678 41.5763 43.2684L41.3745 42.9993C40.2635 41.5179 38.3086 40.9468 36.5748 41.597L35.8487 41.8692C35.6205 41.9548 35.4196 42.1005 35.2673 42.2908L34.4596 43.3005C34.074 43.7825 33.3019 43.6028 33.1688 43V43" stroke="black" stroke-width="3"/>
</svg>
