<svg width="311" height="422" viewBox="0 0 311 422" fill="none" xmlns="http://www.w3.org/2000/svg">
<path fill-rule="evenodd" clip-rule="evenodd" d="M85.0735 0.217593C85.2635 0.697254 88.578 6.28136 92.4384 12.6262L99.4578 24.1624L97.4566 24.5067C92.8385 25.302 88.5884 29.4799 88.5884 33.2243C88.5884 40.9505 100.981 40.4775 104.457 32.6184C105.627 29.9742 105.627 29.8886 104.499 27.35C103.869 25.9305 101.261 21.4022 98.7025 17.2862C96.1451 13.1703 94.0529 9.7082 94.0529 9.59284C94.0529 9.47748 94.8592 9.20607 95.8446 8.98992C96.8306 8.77317 99.7165 7.79502 102.259 6.81626C104.801 5.83751 107.82 5.03666 108.967 5.03666C110.115 5.03666 111.053 4.82477 111.053 4.5649C111.053 4.30564 109.923 3.3609 108.542 2.46472C104.996 0.16599 101.904 -0.121808 96.7869 1.36939C91.1797 3.00388 89.4354 2.93526 86.8677 0.976548C85.691 0.079157 84.8834 -0.262675 85.0735 0.217593ZM84.5884 12.302C78.2574 15.3919 72.1669 21.5236 71.0589 25.9232C69.9447 30.3482 71.5707 34.6506 75.0643 36.52C78.3443 38.276 84.8403 36.7374 87.1925 33.6481C89.4791 30.6445 86.9721 26.2875 82.9569 26.2875C79.0085 26.2875 76.7262 30.8649 79.2714 33.6773C80.0868 34.5783 80.1123 34.7878 79.4062 34.7878C77.0419 34.7878 74.0164 30.8685 74.0164 27.8054C74.0164 26.1083 75.2562 23.3889 77.2981 20.6086C78.7511 18.6299 87.2969 12.0148 89.1664 11.421C90.3382 11.0494 90.9399 9.88732 89.9545 9.89946C89.7043 9.90311 87.289 10.9839 84.5884 12.302ZM67.3655 17.4502C66.2052 18.8479 66.8251 21.0968 68.4335 21.3251C71.119 21.7058 72.4736 19.367 70.6339 17.5267C69.4444 16.3378 68.3108 16.3111 67.3655 17.4502ZM120.245 24.0829C114.369 26.2091 115.672 33.6087 121.913 33.5546C124.801 33.5291 126.525 31.3573 126.038 28.3567C125.659 26.027 126.163 25.7471 127.692 27.4368C129.156 29.0549 129.749 31.6943 129.205 34.1806C128.303 38.3014 120.987 43.3476 111.902 46.1145C109.074 46.9754 108.655 47.2462 109.908 47.4035C114.233 47.9469 123.573 44.4496 128.519 40.4356C131.721 37.8376 133.013 35.4278 133.013 32.0556C133.013 25.2425 127.152 21.5832 120.245 24.0829ZM65.2556 24.8127C64.731 25.3379 64.3017 26.0015 64.3017 26.2875C64.3017 27.2219 66.1833 28.7161 67.3594 28.7161C68.3242 28.7161 69.7662 27.129 69.7662 26.0671C69.7662 25.4326 67.819 23.8588 67.034 23.8588C66.581 23.8588 65.7808 24.2881 65.2556 24.8127ZM134.278 35.1788C133.86 35.3531 133.519 36.123 133.519 36.8892C133.519 39.5905 136.581 40.5395 138.004 38.279C139.255 36.293 136.698 34.1661 134.278 35.1788ZM129.883 42.667C129.373 43.6202 129.493 44.1199 130.469 45.0956C131.145 45.7714 131.951 46.3239 132.261 46.3239C133.076 46.3239 134.733 44.5449 134.733 43.67C134.733 41.4441 130.955 40.6633 129.883 42.667ZM17.4231 48.7155C13.3411 50.0209 10.264 53.6136 10.264 57.075C10.264 58.041 12.1298 62.1977 14.5706 66.6682C16.9392 71.007 19.74 76.1868 20.794 78.1783C22.7352 81.8455 28.1644 88.1279 28.8232 87.4691C29.0205 87.2724 26.182 81.6907 22.516 75.0659L15.8499 63.021L18.2579 62.5905C21.6532 61.9833 24.3575 60.1345 25.9216 57.3519C27.6836 54.2171 27.6156 52.8079 25.5949 50.5462C23.7692 48.5031 20.4285 47.7544 17.4231 48.7155ZM78.5889 55.5832C77.309 58.0046 74.4341 63.4005 72.1997 67.5747C69.966 71.749 67.2319 76.8814 66.1244 78.9804L64.1105 82.7958L66.1791 84.7855C67.3175 85.8796 71.8992 90.4922 76.3606 95.0356L84.4736 103.297L82.5495 104.291C79.8172 105.704 77.0473 110.302 77.0716 113.383C77.0971 116.631 78.3443 118.212 80.8792 118.212C84.8446 118.212 89.1955 113.064 89.1955 108.373C89.1955 105.14 88.9435 104.812 77.8306 93.5651L69.6156 85.2505L77.1287 71.2803C84.4742 57.6209 84.6642 57.3391 85.657 58.6306C86.2149 59.3567 86.5143 60.2062 86.3218 60.5177C86.1293 60.8285 86.238 60.919 86.5635 60.718C86.8889 60.517 90.0049 63.2377 93.4882 66.7648C97.3546 70.6798 99.5167 73.2912 99.0395 73.4697C96.0437 74.5918 92.2314 80.219 92.2314 83.5189C92.2314 84.3969 92.8658 85.8528 93.6418 86.7545C94.9168 88.2366 95.2805 88.3446 97.4366 87.8771C98.7481 87.593 100.16 87.3866 100.573 87.4175C100.987 87.4485 101.172 87.2263 100.985 86.9233C100.798 86.6197 101.34 85.5456 102.19 84.5353C104.062 82.3106 105.276 78.542 104.769 76.525C104.565 75.7095 102.274 72.7727 99.6807 69.9985C97.0862 67.2238 95.0389 64.7035 95.1306 64.3974C95.2223 64.092 95.0595 63.9882 94.7693 64.1673C94.4797 64.3471 91.2902 61.4982 87.6825 57.8376C84.0753 54.1764 81.0765 51.1812 81.0194 51.1812C80.9623 51.1812 79.8682 53.1618 78.5889 55.5832ZM164.782 51.7981C164.571 52.1375 164.103 52.2323 163.741 52.0082C163.378 51.7842 163.247 51.868 163.449 52.194C163.786 52.7405 160.489 56.9852 152.772 65.9384L149.735 69.4624L147.85 67.6452C145.405 65.2875 143.086 64.4497 139.593 64.6622L136.766 64.8334L136.636 67.3477C136.528 69.4393 136.82 70.1752 138.377 71.732C140.105 73.4606 143.374 74.8492 145.732 74.8571C146.271 74.8589 147.396 74.3234 148.231 73.6664C149.066 73.0095 149.967 72.6676 150.231 72.9075C150.497 73.1467 150.544 73.0447 150.337 72.681C149.907 71.9239 155.771 64.7636 156.632 64.9943C156.944 65.0775 157.129 64.9026 157.046 64.6051C156.858 63.9354 163.363 55.9578 163.915 56.1807C174.493 60.4533 187.545 66.1825 187.55 66.5553C187.553 66.8297 187.215 67.4132 186.797 67.8522C186.38 68.2912 183.864 71.2821 181.205 74.4995L176.372 80.3483L174.993 78.5857C173.551 76.7423 169.684 74.8607 167.339 74.8607C164.077 74.8607 162.303 77.9925 163.888 80.953C164.855 82.76 169.488 85.1825 171.975 85.1825C174.394 85.1825 174.603 85.0204 179.591 79.2645C181.388 77.191 183.065 75.6221 183.317 75.7781C183.57 75.9342 183.739 75.6938 183.693 75.2439C183.647 74.7933 185.87 71.7848 188.632 68.5577C192.827 63.6567 193.477 62.6245 192.579 62.2948C191.987 62.078 185.657 59.4885 178.511 56.5407C171.364 53.5929 165.438 51.1812 165.341 51.1812C165.243 51.1812 164.991 51.4587 164.782 51.7981ZM123.449 92.7241C121.116 93.7399 118.947 96.4266 118.947 98.2997C118.947 99.0799 119.443 100.614 120.049 101.71C127.611 115.38 129.532 118.612 130.806 119.81C132.73 121.617 133.389 120.968 131.868 118.764C129.954 115.989 123.197 103.55 123.197 102.801C123.197 102.422 123.458 102.273 123.777 102.47C124.631 102.998 128.29 101.316 129.789 99.7071C130.644 98.7903 131.09 97.5226 131.09 96.0125C131.09 94.0811 130.804 93.5663 129.299 92.7879C127.131 91.6671 125.908 91.6537 123.449 92.7241ZM144.885 106.282C144.021 109.204 141.089 119.065 138.37 128.195C135.652 137.326 133.516 144.879 133.625 144.98C133.734 145.082 140.026 147.274 147.609 149.852C159.674 153.954 161.285 154.65 160.512 155.423C157.664 158.27 159.583 164.339 163.729 165.602C165.684 166.198 168.734 163.081 168.734 160.487C168.734 158.218 167.309 155.258 165.844 154.486C165.263 154.179 159.083 151.995 152.11 149.632C145.137 147.269 139.327 145.232 139.2 145.104C138.982 144.886 140.499 139.323 143.339 129.923C144.074 127.493 144.873 125.891 145.277 126.038C145.656 126.176 149.737 127.602 154.347 129.207C158.958 130.812 162.459 132.293 162.127 132.497C160.844 133.291 160.206 136.257 160.833 138.52C161.658 141.497 162.089 142.068 164.081 142.826C168.613 144.549 171.694 138.333 168.582 133.741C167.341 131.909 166.217 131.393 156.287 128.103C150.276 126.112 145.29 124.429 145.208 124.364C144.96 124.17 150.612 104.947 151.037 104.536C151.253 104.327 154.397 105.156 158.023 106.38C163.691 108.291 164.482 108.715 163.656 109.401C160.496 112.023 163.088 119.791 167.122 119.791C171.136 119.791 172.797 112.293 169.454 109.268C168.553 108.453 148.146 100.971 146.819 100.969C146.619 100.969 145.75 103.36 144.885 106.282ZM206.682 104.255C205.68 104.7 204.224 105.754 203.447 106.597C202.201 107.948 201.788 108.063 199.965 107.56C196.037 106.475 191.601 108.737 189.452 112.92C188.463 114.846 188.609 116.486 190.014 119.241C191.463 122.081 194.672 124.489 202.094 128.303C205.031 129.812 207.924 131.451 208.523 131.946C209.46 132.72 209.652 132.724 209.904 131.976C210.065 131.498 211.397 128.903 212.866 126.208C217.98 116.827 218.218 116.17 218.218 111.477C218.218 107.745 218.022 106.927 216.868 105.852C214.192 103.359 210.13 102.722 206.682 104.255ZM234.653 111.442C234.478 112.528 234.06 116.421 233.725 120.095C232.394 134.637 231.258 146.324 230.946 148.693L230.618 151.182L228.34 150.574C227.087 150.24 225.037 150.159 223.783 150.394C221.207 150.877 218.003 153.486 217.747 155.31C217.653 155.978 217.335 156.934 217.041 157.435C216.746 157.936 216.724 158.149 216.991 157.908C217.258 157.667 218.266 158.134 219.231 158.946C222.567 161.753 228.279 161.532 231.141 158.486C232.247 157.308 232.6 155.704 233.38 148.306C233.889 143.476 234.306 138.892 234.307 138.12L234.308 136.716L237.386 138.391C239.079 139.312 241.253 140.965 242.218 142.064C244.028 144.126 245.56 148.433 245 149.89C244.826 150.345 244.93 150.871 245.233 151.058C245.982 151.52 247.059 149.374 247.059 147.417C247.059 146.538 247.358 145.26 247.724 144.576C248.359 143.39 249.173 137.475 249.889 128.853C250.161 125.571 249.977 124.298 248.858 121.696C247.394 118.293 243.658 114.549 239.988 112.807C238.787 112.237 237.669 111.253 237.503 110.62C236.986 108.643 235.012 109.212 234.653 111.442ZM22.9173 114.947C21.6951 115.592 20.0521 116.943 19.2658 117.947C17.9027 119.688 17.7273 119.742 15.4376 119.11C12.1468 118.201 8.34898 118.839 5.26275 120.82C3.83895 121.733 2.44915 122.415 2.1741 122.335C1.89845 122.255 1.83652 122.453 2.03567 122.775C2.23421 123.098 1.84623 124.265 1.17228 125.371C-0.369317 127.899 -0.390567 130.733 1.10913 133.628C2.41332 136.144 5.40665 140.312 5.40665 139.611C5.40665 139.362 6.31011 139.847 7.41455 140.69C8.51898 141.532 12.0029 143.499 15.1559 145.061C18.3095 146.622 22.329 148.816 24.0885 149.936C25.8487 151.055 27.502 151.971 27.7637 151.971C28.0254 151.971 28.7066 150.671 29.2774 149.082C29.8487 147.494 30.9143 145.24 31.6453 144.073C32.3769 142.907 32.9908 141.816 33.0102 141.649C33.0297 141.482 34.0315 139.569 35.2367 137.399C41.145 126.759 40.8129 118.29 34.3502 114.807C31.6599 113.357 25.7898 113.43 22.9173 114.947ZM236.241 119.024C236.371 120.149 237.093 121.08 238.475 121.908C241.379 123.648 245.827 127.672 247.208 129.809L248.385 131.631L247.999 128.898C247.454 125.043 245.273 122.091 241.094 119.552C236.744 116.91 235.987 116.827 236.241 119.024ZM235.522 129.088C235.522 130.973 235.87 131.404 239.014 133.413C242.387 135.571 245.835 139.464 245.853 141.139C245.861 141.756 246.002 141.733 246.436 141.047C246.75 140.549 246.883 139.524 246.73 138.77C246.577 138.016 246.315 136.737 246.148 135.928C245.56 133.078 240.734 128.648 236.889 127.429C235.652 127.036 235.522 127.194 235.522 129.088ZM53.516 155.637C47.5767 159.043 45.1529 164.419 47.9526 167.979C50.9817 171.83 58.7711 168.401 56.1341 164.377C55.6016 163.565 54.6454 162.9 54.009 162.9C52.3011 162.9 50.7953 164.684 51.1111 166.335C51.465 168.186 50.6235 168.151 49.3867 166.264C47.4978 163.381 49.7249 159.37 55.0971 155.979C57.5166 154.451 58.1487 153.786 57.1675 153.798C56.9174 153.801 55.2738 154.628 53.516 155.637ZM44.4863 158.342C44.2762 158.89 44.3952 159.63 44.751 159.985C45.6763 160.911 47.4286 160.065 47.1869 158.81C46.918 157.413 44.9726 157.075 44.4863 158.342ZM75.9611 161.81C73.711 162.408 73.102 163.416 73.6563 165.624C74.2046 167.807 76.9065 168.373 78.3388 166.605C78.9332 165.87 79.2678 164.872 79.082 164.388C78.8962 163.903 79.0528 163.507 79.4311 163.507C80.4936 163.507 81.3443 166.357 80.7444 167.909C79.9059 170.08 77.561 171.9 73.0492 173.883C69.0012 175.662 68.9471 175.713 71.4863 175.369C74.819 174.917 79.2726 172.66 81.5379 170.273C83.0656 168.665 83.2483 168.098 82.952 165.893C82.7656 164.5 82.3673 163.115 82.068 162.815C81.0383 161.786 77.9593 161.279 75.9611 161.81ZM43.2816 162.567C42.8463 163.701 43.482 164.721 44.6235 164.721C45.8645 164.721 46.448 162.894 45.4164 162.24C44.2088 161.476 43.6684 161.559 43.2816 162.567ZM83.7231 168.678C82.8312 169.752 83.4505 170.793 84.9812 170.793C85.7329 170.793 86.1597 170.376 86.1597 169.644C86.1597 168.174 84.6406 167.572 83.7231 168.678ZM81.3024 173.186C81.3024 174.821 82.4511 175.369 83.5574 174.262C84.6642 173.156 84.116 172.007 82.4809 172.007C81.7189 172.007 81.3024 172.424 81.3024 173.186ZM60.5088 180.052C58.9392 183.141 56.2428 188.358 54.5166 191.644L51.3776 197.62L58.8913 205.152L66.4049 212.684L64.1833 214.514C59.4274 218.435 59.9435 225.496 64.8712 223.932C65.5191 223.726 66.8852 222.605 67.9071 221.441C69.3503 219.798 69.7662 218.753 69.7662 216.774C69.7662 214.324 69.476 213.931 62.4165 206.855L55.0661 199.488L60.6788 189.134C65.5215 180.2 66.4256 178.875 67.2695 179.467C67.8081 179.845 70.3752 182.378 72.9751 185.095L77.7019 190.036L75.252 192.486C73.1032 194.636 72.802 195.279 72.802 197.719C72.802 199.848 73.0777 200.649 73.9763 201.13C75.7219 202.064 76.2022 201.934 78.5118 199.907C80.8689 197.837 82.1834 194.69 81.4699 192.823C80.8901 191.307 64.847 174.438 63.9836 174.437C63.6411 174.437 62.0777 176.964 60.5088 180.052ZM130.179 190.458C129.177 190.904 127.412 192.243 126.256 193.434C125.1 194.625 123.932 195.462 123.661 195.294C123.389 195.127 123.242 195.228 123.333 195.52C123.425 195.811 120.666 199.086 117.201 202.798L110.901 209.546L109.55 207.018C108.807 205.628 106.653 202.34 104.762 199.712C102.872 197.083 101.168 194.214 100.975 193.336C100.783 192.458 100.543 191.467 100.443 191.133C100.103 190.003 98.1269 195.364 97.8404 198.196C97.4924 201.625 98.4244 204.618 101.179 208.924C104.91 214.757 105.21 215.942 103.778 219.18C103.097 220.721 102.648 222.092 102.781 222.225C102.915 222.359 105.582 219.796 108.709 216.53C111.835 213.264 117.013 207.853 120.215 204.506L126.038 198.419L127.501 201.432C129.071 204.663 131.672 206.803 135.381 207.914C138.151 208.744 140.199 208.293 142.446 206.359C143.938 205.075 144.14 204.486 144.112 201.513C144.086 198.767 143.737 197.641 142.264 195.542C139.263 191.268 133.658 188.911 130.179 190.458Z" fill="#D6A49B" fill-opacity="0.44"/>
<path fill-rule="evenodd" clip-rule="evenodd" d="M282.39 201.995C278.26 203.633 272.697 208.45 273.477 209.712C273.82 210.268 273.696 210.722 273.201 210.722C272.69 210.722 272.618 212.779 273.034 215.472C273.437 218.085 273.6 220.4 273.395 220.618C273.191 220.836 271.102 219.743 268.753 218.188C259.171 211.846 238.297 211.191 223.611 216.771C220.895 217.803 218.223 218.37 217.673 218.03C217.11 217.682 216.985 217.916 217.388 218.567C217.78 219.202 217.727 219.722 217.271 219.722C215.785 219.722 203.048 229.453 203.691 230.097C204.035 230.441 203.809 230.722 203.188 230.722C202.568 230.722 201.577 228.926 200.986 226.731C200.395 224.537 198.856 221.686 197.567 220.397C195.336 218.165 194.871 218.098 187.853 218.986C179.669 220.021 176.346 221.681 170.569 227.62C167.192 231.091 166.592 232.398 166.199 237.136C165.499 245.578 166.529 248.776 171.143 252.472C173.374 254.259 176.302 255.722 177.65 255.722C178.998 255.722 179.831 256.159 179.501 256.693C178.52 258.28 183.915 259.074 186.787 257.765C189.316 256.613 189.367 256.643 187.844 258.388C186.964 259.397 186.434 260.743 186.666 261.379C186.898 262.016 185.939 266.053 184.535 270.352C181.673 279.116 181.074 292.332 183.105 301.923C184.472 308.377 190.138 320.647 192.91 323.156C194.024 324.164 194.652 325.449 194.305 326.01C193.915 326.642 194.179 326.719 194.998 326.212C195.991 325.599 196.142 325.866 195.6 327.277C195.203 328.313 195.178 328.86 195.546 328.493C196.378 327.66 201.918 332.939 201.304 333.979C201.058 334.395 201.672 335.037 202.67 335.405C203.667 335.772 205.496 337.142 206.733 338.449C207.971 339.756 208.983 340.583 208.983 340.288C208.983 339.993 210.446 340.643 212.233 341.733C214.021 342.823 216.059 343.716 216.764 343.718C217.468 343.72 221.226 345.525 225.114 347.728C229.002 349.932 233.224 351.995 234.496 352.315C237.029 352.95 236.678 351.536 241.119 378.979C243.684 394.827 244.335 393.145 233.483 398.712C221.563 404.826 212.186 410.956 213.886 411.523C214.512 411.732 216.726 411.015 218.806 409.931C222.169 408.178 222.803 408.122 224.535 409.422C231.33 414.522 250.939 421.722 258.035 421.722H261.983V416.639C261.983 410.829 263.789 410.274 265.534 415.548C267.284 420.839 268.2 421.152 273.722 418.354C281.485 414.42 288.935 406.874 293.983 397.831L298.483 389.769L304.483 389.73C308.732 389.703 310.045 389.409 308.983 388.722C308.158 388.189 301.408 387.739 293.983 387.722C286.558 387.705 280.004 387.361 279.42 386.957C278.422 386.268 269.983 353.717 269.983 350.559C269.983 349.285 274.458 345.492 281.59 340.722C282.823 339.897 285.504 337.322 287.547 334.999C289.59 332.677 291.719 331.059 292.277 331.404C292.835 331.749 292.999 331.557 292.641 330.977C292.283 330.398 293.451 328.641 295.236 327.073C297.022 325.505 298.485 323.997 298.487 323.722C298.492 323.11 303.133 316.417 304.035 315.722C305.452 314.629 306.936 310.742 309.016 302.674C311.908 291.449 311.211 278.987 307.228 270.722C305.77 267.697 304.161 264.935 303.652 264.584C303.143 264.233 303.043 263.434 303.429 262.809C303.816 262.184 303.622 261.796 302.999 261.947C302.376 262.098 301.247 260.467 300.491 258.322C299.734 256.177 298.523 254.046 297.799 253.587C297.075 253.128 296.851 252.746 297.301 252.737C297.751 252.729 297.16 251.375 295.988 249.729C294.816 248.083 294.18 246.213 294.574 245.574C294.995 244.894 294.857 244.682 294.242 245.062C293.665 245.419 292.949 245.075 292.651 244.299C292.06 242.759 293.918 241.728 297.315 241.711C298.507 241.705 301.34 239.925 303.609 237.754C305.878 235.583 308.053 234.126 308.442 234.515C308.831 234.904 309.039 234.772 308.905 234.222C308.77 233.672 309.179 231.965 309.813 230.429C311.139 227.218 310.705 216.562 309.078 212.397C307.964 209.543 306.694 208.048 303.831 206.222C302.969 205.672 301.02 204.347 299.501 203.277C296.153 200.919 286.855 200.223 282.39 201.995ZM282.983 203.342C278.593 205.637 276.849 207.155 275.38 209.957C273.231 214.058 275.25 220.919 279.976 225.574C282.013 227.58 283.97 230.038 284.324 231.035C284.698 232.088 285.456 232.548 286.13 232.131C286.847 231.688 287.022 231.849 286.588 232.553C286.193 233.191 287.238 235.017 288.968 236.707C292.797 240.45 296.748 240.632 300.767 237.25C302.383 235.89 303.926 234.998 304.196 235.268C304.465 235.538 305.726 233.798 306.997 231.402C309.021 227.587 309.177 226.526 308.25 222.878C307.669 220.586 307.579 218.472 308.05 218.18C310.74 216.518 301.189 205.621 295.483 203.841C290.178 202.186 285.547 202.001 282.983 203.342ZM234.983 216.173C230.858 216.883 227.371 217.578 227.233 217.718C227.095 217.857 226.645 218.047 226.233 218.14C222.859 218.894 217.928 221.084 216.95 222.262C216.293 223.053 215.281 223.406 214.7 223.047C214.035 222.636 213.887 223.03 214.302 224.11C214.69 225.122 214.558 225.577 213.979 225.22C213.076 224.662 203.983 232.74 203.983 234.1C203.983 234.43 203.219 235.591 202.285 236.682C197.903 241.8 189.635 258.351 190.645 259.984C191.001 260.56 190.822 260.74 190.247 260.385C189.367 259.842 188.159 263.214 187.439 268.222C187.36 268.772 186.723 270.572 186.025 272.222C184.2 276.532 183.557 292.019 184.855 300.362C185.955 307.428 190.662 317.586 194.984 322.222C196.009 323.322 198.986 326.56 201.599 329.417C204.213 332.275 206.788 334.343 207.321 334.013C207.855 333.683 207.985 333.91 207.61 334.517C207.234 335.125 207.78 336.078 208.824 336.637C212.278 338.485 211.984 336.502 208.112 331.831C206.011 329.296 203.599 325.156 202.752 322.631C201.906 320.106 199.586 315.909 197.598 313.305C194.156 308.796 193.023 305.722 194.802 305.722C195.252 305.722 196.367 307.184 197.279 308.972L198.938 312.222L198.302 309.222C197.953 307.572 196.982 305.165 196.146 303.874C194.921 301.984 194.861 301.147 195.838 299.583C196.505 298.515 196.741 297.139 196.362 296.527C195.976 295.902 196.123 295.691 196.698 296.046C198.897 297.405 202.851 287.006 203.957 276.958C204.549 271.582 205.415 265.842 205.882 264.203L206.731 261.222L207.928 264.222C208.712 266.188 208.958 270.769 208.64 277.512C208.204 286.77 208.322 287.753 209.819 287.314C210.734 287.045 214.408 286.324 217.983 285.711C221.558 285.098 226.058 284.18 227.983 283.671C229.908 283.162 233.357 282.284 235.648 281.718C239.481 280.773 239.866 280.374 240.486 276.706C241.291 271.937 242.391 271.676 244.5 275.755C245.362 277.423 246.499 278.521 247.026 278.196C247.552 277.87 247.982 277.968 247.982 278.413C247.981 279.258 262.646 278.46 266.983 277.379C268.358 277.036 270.725 276.486 272.243 276.157C273.761 275.828 276.33 274.897 277.952 274.087L280.902 272.616L278.555 265.919C276.243 259.32 275.244 250.722 276.789 250.722C277.225 250.722 278.151 252.41 278.848 254.472C279.545 256.535 280.49 259.122 280.948 260.222C281.406 261.322 282.331 263.685 283.003 265.472C283.676 267.259 284.648 268.722 285.163 268.722C285.679 268.722 285.84 269.144 285.521 269.661C285.202 270.177 285.666 271.005 286.552 271.5C287.437 271.996 288.099 272.727 288.022 273.126C287.945 273.524 290.154 275.659 292.932 277.871C295.71 280.082 297.983 282.607 297.983 283.481C297.983 284.729 297.398 284.55 295.263 282.646C293.767 281.313 293.131 280.99 293.849 281.928C294.568 282.867 294.897 284.053 294.58 284.565C294.264 285.076 294.898 285.728 295.989 286.013C298.571 286.689 299.358 288.909 298.548 293.23C297.707 297.71 296.259 297.8 296.779 293.34C296.997 291.48 296.782 289.716 296.302 289.419C295.823 289.123 295.347 293.007 295.245 298.051C295.035 308.487 294.106 316.722 293.139 316.722C292.778 316.722 292.483 308.644 292.483 298.772C292.483 284.693 292.182 280.541 291.086 279.522C289.927 278.443 289.832 278.477 290.526 279.722C290.986 280.547 289.777 279.647 287.839 277.722C285.901 275.797 284.436 273.976 284.583 273.674C284.731 273.373 284.438 272.473 283.932 271.674C283.178 270.482 283.011 270.548 282.998 272.043C282.99 273.045 282.308 274.54 281.483 275.365C280.658 276.19 279.983 276.556 279.983 276.178C279.983 275.801 278.825 276.251 277.409 277.179C273.419 279.793 269.012 280.51 254.483 280.908C248.433 281.074 243.237 281.541 242.936 281.947C242.069 283.115 227.512 286.529 215.291 288.43C205.678 289.925 203.96 290.477 203.108 292.346C201.729 295.374 202.578 295.779 206.293 293.865C209.397 292.266 219.948 291.694 224.429 292.881C227.351 293.655 227.405 295.408 224.525 295.959C223.127 296.226 221.983 296.057 221.983 295.583C221.983 295.11 220.81 294.722 219.376 294.722C217.416 294.722 216.919 295.112 217.372 296.294C218.387 298.939 216.182 301.722 213.07 301.722C210.097 301.722 207.467 299.609 208.742 298.245C209.149 297.808 208.481 297.972 207.256 298.609C205.427 299.561 204.712 299.45 203.256 297.988C201.556 296.282 201.396 296.309 199.372 298.654L197.261 301.1L199.731 309.161C204.665 325.261 207.895 330.384 219.723 340.866C228.131 348.317 236.399 351.69 250.043 353.235C256.715 353.991 262.677 351.699 273.16 344.351C279.985 339.566 286.82 330.762 290.989 321.388C292.008 319.097 292.874 317.807 292.912 318.522C292.951 319.236 292.365 321.036 291.61 322.522C290.854 324.007 289.917 326.257 289.526 327.522C288.785 329.925 290.468 328.45 298.413 319.734C304.017 313.587 306.966 305.865 308.442 293.473C309.153 287.501 307.431 276.722 305.765 276.722C305.27 276.722 305.131 276.291 305.457 275.765C305.782 275.238 303.723 270.401 300.882 265.015C298.04 259.629 294.605 252.972 293.248 250.222C291.891 247.472 290.364 244.547 289.853 243.722C289.343 242.897 288.661 241.434 288.337 240.472C288.014 239.51 287.352 238.722 286.866 238.722C286.381 238.722 285.983 238.033 285.983 237.191C285.983 236.348 285.308 235.4 284.483 235.084C283.658 234.767 282.983 233.855 282.983 233.056C282.983 232.257 282.538 231.879 281.994 232.215C281.439 232.558 281.254 232.18 281.572 231.351C281.919 230.448 281.235 229.397 279.811 228.642C278.53 227.963 276.808 226.663 275.983 225.752C273.08 222.547 262.938 216.517 259.729 216.088C251.334 214.965 241.821 214.998 234.983 216.173ZM183.473 221.738C183.127 222.297 182.399 222.479 181.855 222.143C180.313 221.19 173.42 226.463 170.562 230.782C168.554 233.817 167.983 235.93 167.983 240.332C167.983 245.483 168.29 246.275 171.435 249.241C173.334 251.032 176.992 253.516 179.566 254.762C183.94 256.88 184.414 256.924 186.864 255.441C188.304 254.569 189.933 253.04 190.483 252.043C191.033 251.046 192.301 248.991 193.301 247.476C194.301 245.961 194.751 244.715 194.301 244.707C193.851 244.698 193.942 244.361 194.503 243.957C197.906 241.507 201.344 227.681 198.922 226.185C198.063 225.653 197.926 225.821 198.483 226.722C199.007 227.57 198.901 227.789 198.181 227.344C197.57 226.967 197.298 226.064 197.577 225.338C198.816 222.108 185.366 218.676 183.473 221.738ZM280.38 277.823C279.337 278.215 276.932 279.118 275.037 279.831C271.441 281.183 264.983 286.298 264.983 287.794C264.983 288.27 265.658 288.4 266.483 288.084C267.308 287.767 267.983 287.962 267.983 288.517C267.983 289.072 269.336 289.998 270.99 290.575C273.567 291.473 274.283 291.317 275.99 289.484C277.086 288.307 277.983 286.53 277.983 285.533C277.983 284.237 278.765 283.706 280.733 283.667C282.517 283.631 284.267 282.617 285.717 280.778L287.951 277.944L285.114 277.528C283.554 277.299 281.423 277.432 280.38 277.823ZM204.983 287.781C204.983 288.363 205.433 288.562 205.983 288.222C206.533 287.882 206.983 287.406 206.983 287.163C206.983 286.92 206.533 286.722 205.983 286.722C205.433 286.722 204.983 287.199 204.983 287.781ZM279.983 293.722C277.372 296.333 277.22 303.422 279.733 305.33C282.38 307.339 287.68 307.025 289.983 304.722C292.733 301.972 292.637 296.409 289.794 293.761C287.008 291.165 282.557 291.148 279.983 293.722ZM208.983 306.454C205.411 307.111 203.981 308.585 203.997 311.594C204.021 316.301 205.123 318.537 208.005 319.731C211.198 321.054 213.709 320.512 217.236 317.738C220.326 315.307 219.85 310.549 216.232 307.703C213.673 305.69 213.396 305.643 208.983 306.454ZM243.983 308.222C240.884 309.416 240.769 309.577 242.983 309.632C246.601 309.723 250.049 308.637 249.413 307.608C248.731 306.506 248.319 306.552 243.983 308.222ZM249.975 314.748C249.154 315.267 247.133 315.714 245.483 315.742C243.833 315.77 240.283 316.822 237.595 318.079L232.706 320.365L235.845 321.665C237.571 322.38 238.983 323.305 238.983 323.722C238.983 325.061 245.051 327.043 248.726 326.905C251.952 326.784 255.983 324.103 255.983 322.078C255.983 321.678 256.862 320.415 257.937 319.271C259.313 317.806 259.613 316.752 258.952 315.707C258.125 314.398 258.01 314.4 257.983 315.722C257.963 316.692 257.693 316.835 257.218 316.126C256.133 314.508 251.691 313.663 249.975 314.748ZM212.418 338.617C212.79 339.219 214.024 340.209 215.159 340.816C216.639 341.608 217.033 341.611 216.548 340.827C216.176 340.225 214.942 339.235 213.807 338.628C212.327 337.836 211.933 337.833 212.418 338.617ZM266.741 351.297C266.425 351.613 265.563 351.975 264.825 352.102C264.087 352.228 261.723 352.928 259.571 353.657C256.957 354.544 252.897 354.811 247.33 354.464C239.211 353.958 239.014 353.998 239.51 356.083C240.767 361.364 244.976 388.541 244.979 391.401C244.982 394.117 244.258 395.049 239.994 397.812C236.192 400.275 235.259 401.35 236.071 402.328C239.03 405.893 258.705 406.645 265.983 403.471C267.908 402.632 271.882 400.901 274.815 399.624C278.046 398.218 281.329 395.811 283.149 393.513L286.151 389.722L283.817 389.57C282.533 389.486 281.033 389.313 280.483 389.185C279.933 389.057 278.993 388.901 278.394 388.837C277.105 388.701 271.614 370.526 269.46 359.267C267.87 350.955 267.67 350.368 266.741 351.297Z" fill="black"/>
</svg>
