<svg width="356" height="553" viewBox="0 0 356 553" fill="none" xmlns="http://www.w3.org/2000/svg">
<path d="M42.4136 428V376.025H51.7136V420.125H67.7636V428H42.4136ZM75.0638 428V388.25H84.1388V428H75.0638ZM79.6388 381.275C78.1388 381.275 76.8388 380.775 75.7388 379.775C74.6888 378.725 74.1638 377.35 74.1638 375.65C74.1638 373.95 74.6888 372.6 75.7388 371.6C76.8388 370.55 78.1388 370.025 79.6388 370.025C81.1388 370.025 82.4388 370.55 83.5388 371.6C84.6388 372.6 85.1888 373.95 85.1888 375.65C85.1888 377.35 84.6388 378.725 83.5388 379.775C82.4388 380.775 81.1388 381.275 79.6388 381.275ZM101.516 428.975C99.6159 428.975 97.8159 428.725 96.1159 428.225C94.4159 427.775 93.0909 427.3 92.1409 426.8L93.8659 419.675C94.9159 420.275 96.0659 420.75 97.3159 421.1C98.6159 421.45 99.7909 421.625 100.841 421.625C102.441 421.625 103.641 421.25 104.441 420.5C105.241 419.7 105.641 418.725 105.641 417.575C105.641 416.625 105.441 415.8 105.041 415.1C104.691 414.4 104.066 413.7 103.166 413C102.316 412.25 101.091 411.4 99.4909 410.45C97.8909 409.45 96.5659 408.425 95.5159 407.375C94.5159 406.275 93.7909 405.075 93.3409 403.775C92.8909 402.475 92.6659 400.975 92.6659 399.275C92.6659 396.975 93.1659 394.925 94.1659 393.125C95.2159 391.275 96.6909 389.85 98.5909 388.85C100.491 387.8 102.716 387.275 105.266 387.275C107.016 387.275 108.616 387.45 110.066 387.8C111.566 388.15 112.666 388.5 113.366 388.85L111.941 395.825C110.841 395.425 109.791 395.125 108.791 394.925C107.841 394.725 106.916 394.625 106.016 394.625C104.516 394.625 103.366 394.95 102.566 395.6C101.816 396.25 101.441 397.175 101.441 398.375C101.441 399.275 101.641 400.075 102.041 400.775C102.441 401.425 103.091 402.1 103.991 402.8C104.891 403.5 106.066 404.35 107.516 405.35C109.066 406.35 110.366 407.425 111.416 408.575C112.516 409.675 113.341 410.9 113.891 412.25C114.441 413.6 114.716 415.1 114.716 416.75C114.716 419.2 114.166 421.35 113.066 423.2C111.966 425 110.416 426.425 108.416 427.475C106.466 428.475 104.166 428.975 101.516 428.975ZM133.782 428.9C131.082 428.9 128.832 428.35 127.032 427.25C125.282 426.15 123.982 424.475 123.132 422.225C122.282 419.975 121.857 417.15 121.857 413.75V378.425L130.932 376.925V388.25H140.607V395.75H130.932V414.275C130.932 415.825 131.107 417.1 131.457 418.1C131.807 419.1 132.307 419.85 132.957 420.35C133.657 420.8 134.507 421.025 135.507 421.025C136.407 421.025 137.207 420.95 137.907 420.8C138.607 420.6 139.332 420.3 140.082 419.9L141.432 426.95C140.582 427.55 139.432 428.025 137.982 428.375C136.582 428.725 135.182 428.9 133.782 428.9ZM161.749 428.975C158.349 428.975 155.424 428.175 152.974 426.575C150.574 424.975 148.749 422.65 147.499 419.6C146.249 416.55 145.624 412.875 145.624 408.575C145.624 404.025 146.199 400.175 147.349 397.025C148.499 393.875 150.149 391.475 152.299 389.825C154.449 388.125 156.949 387.275 159.799 387.275C162.699 387.275 165.099 388.075 166.999 389.675C168.949 391.275 170.424 393.575 171.424 396.575C172.474 399.525 172.999 403.075 172.999 407.225C172.999 407.925 172.974 408.625 172.924 409.325C172.924 409.975 172.899 410.65 172.849 411.35H154.924C154.974 414.45 155.699 416.85 157.099 418.55C158.499 420.25 160.599 421.1 163.399 421.1C164.699 421.1 165.949 421.025 167.149 420.875C168.399 420.675 169.449 420.375 170.299 419.975L171.349 427.1C169.949 427.75 168.449 428.225 166.849 428.525C165.299 428.825 163.599 428.975 161.749 428.975ZM154.849 404.9H164.299C164.249 402.45 164.049 400.475 163.699 398.975C163.349 397.425 162.824 396.3 162.124 395.6C161.424 394.9 160.574 394.55 159.574 394.55C158.524 394.55 157.649 394.925 156.949 395.675C156.299 396.425 155.799 397.575 155.449 399.125C155.099 400.625 154.899 402.55 154.849 404.9ZM181.631 428V389.225C183.681 388.625 185.706 388.2 187.706 387.95C189.756 387.65 191.831 387.5 193.931 387.5C197.281 387.5 200.031 388.125 202.181 389.375C204.381 390.575 206.006 392.425 207.056 394.925C208.106 397.425 208.631 400.575 208.631 404.375V428H199.556V404.825C199.556 402.425 199.356 400.55 198.956 399.2C198.606 397.8 198.006 396.8 197.156 396.2C196.306 395.55 195.156 395.225 193.706 395.225C193.256 395.225 192.781 395.275 192.281 395.375C191.781 395.425 191.256 395.525 190.706 395.675V428H181.631Z" fill="black"/>
<path d="M14.43 485.405C13.02 485.405 11.82 485.12 10.83 484.55C9.84004 483.98 9.09004 483.095 8.58004 481.895C8.07004 480.695 7.81504 479.15 7.81504 477.26V455.075L11.955 454.355V461.375H17.895V464.795H11.955V477.44C11.955 478.43 12.075 479.255 12.315 479.915C12.555 480.545 12.915 481.01 13.395 481.31C13.875 481.61 14.46 481.76 15.15 481.76C15.66 481.76 16.125 481.73 16.545 481.67C16.995 481.58 17.445 481.415 17.895 481.175L18.525 484.415C18.045 484.715 17.43 484.955 16.68 485.135C15.93 485.315 15.18 485.405 14.43 485.405ZM29.5641 485.54C27.8241 485.54 26.3241 485.06 25.0641 484.1C23.8041 483.11 22.8441 481.7 22.1841 479.87C21.5541 478.01 21.2391 475.775 21.2391 473.165C21.2391 470.525 21.5541 468.29 22.1841 466.46C22.8441 464.6 23.8041 463.19 25.0641 462.23C26.3241 461.24 27.8241 460.745 29.5641 460.745C31.3341 460.745 32.8341 461.24 34.0641 462.23C35.2941 463.19 36.2391 464.6 36.8991 466.46C37.5591 468.29 37.8891 470.525 37.8891 473.165C37.8891 475.775 37.5591 478.01 36.8991 479.87C36.2391 481.7 35.2941 483.11 34.0641 484.1C32.8341 485.06 31.3341 485.54 29.5641 485.54ZM29.5641 481.94C30.4641 481.94 31.1991 481.625 31.7691 480.995C32.3691 480.335 32.8191 479.36 33.1191 478.07C33.4491 476.78 33.6141 475.145 33.6141 473.165C33.6141 471.185 33.4491 469.55 33.1191 468.26C32.8191 466.94 32.3691 465.965 31.7691 465.335C31.1691 464.675 30.4341 464.345 29.5641 464.345C28.6641 464.345 27.9141 464.675 27.3141 465.335C26.7441 465.965 26.2941 466.94 25.9641 468.26C25.6641 469.55 25.5141 471.185 25.5141 473.165C25.5141 475.115 25.6641 476.75 25.9641 478.07C26.2941 479.36 26.7441 480.335 27.3141 480.995C27.9141 481.625 28.6641 481.94 29.5641 481.94ZM50.3154 485V462.005C51.3954 461.675 52.4904 461.42 53.6004 461.24C54.7104 461.03 55.8654 460.925 57.0654 460.925C58.2054 460.925 59.2254 461.075 60.1254 461.375C61.0254 461.675 61.7754 462.14 62.3754 462.77C62.9154 462.35 63.4704 462.005 64.0404 461.735C64.6404 461.465 65.2554 461.27 65.8854 461.15C66.5154 461 67.1454 460.925 67.7754 460.925C69.4554 460.925 70.8354 461.255 71.9154 461.915C73.0254 462.575 73.8354 463.595 74.3454 464.975C74.8854 466.325 75.1554 468.035 75.1554 470.105V485H71.0154V470.375C71.0154 468.905 70.8954 467.735 70.6554 466.865C70.4154 465.995 70.0254 465.38 69.4854 465.02C68.9754 464.63 68.2554 464.435 67.3254 464.435C66.9354 464.435 66.5454 464.495 66.1554 464.615C65.7954 464.705 65.4504 464.84 65.1204 465.02C64.7904 465.17 64.4754 465.365 64.1754 465.605C64.4154 466.265 64.5804 466.97 64.6704 467.72C64.7604 468.44 64.8054 469.235 64.8054 470.105V485H60.6654V470.375C60.6654 468.875 60.5454 467.69 60.3054 466.82C60.0654 465.95 59.6754 465.335 59.1354 464.975C58.5954 464.615 57.8454 464.435 56.8854 464.435C56.6454 464.435 56.3754 464.465 56.0754 464.525C55.8054 464.555 55.5354 464.615 55.2654 464.705C54.9954 464.765 54.7254 464.84 54.4554 464.93V485H50.3154ZM81.3784 493.46C80.7184 493.46 80.1334 493.385 79.6234 493.235C79.1134 493.115 78.7234 492.98 78.4534 492.83L79.0834 489.5C79.4134 489.65 79.7584 489.755 80.1184 489.815C80.5084 489.875 80.8534 489.905 81.1534 489.905C81.6634 489.905 82.1434 489.755 82.5934 489.455C83.0734 489.155 83.5534 488.66 84.0334 487.97C84.5134 487.28 84.9784 486.335 85.4284 485.135C84.4384 482.405 83.5534 479.735 82.7734 477.125C81.9934 474.515 81.3034 471.905 80.7034 469.295C80.1034 466.655 79.5484 464.015 79.0384 461.375H83.3584C83.5384 462.815 83.7784 464.36 84.0784 466.01C84.3784 467.63 84.7084 469.295 85.0684 471.005C85.4284 472.685 85.8034 474.32 86.1934 475.91C86.6134 477.5 87.0334 478.97 87.4534 480.32C88.0534 478.4 88.6084 476.345 89.1184 474.155C89.6584 471.965 90.1384 469.775 90.5584 467.585C90.9784 465.395 91.3084 463.325 91.5484 461.375H95.7334C95.1934 464.255 94.5934 467.075 93.9334 469.835C93.3034 472.595 92.6284 475.235 91.9084 477.755C91.1884 480.275 90.4234 482.645 89.6134 484.865C88.8334 486.965 88.0384 488.645 87.2284 489.905C86.4484 491.165 85.5784 492.065 84.6184 492.605C83.6884 493.175 82.6084 493.46 81.3784 493.46Z" fill="black"/>
<path d="M66.632 541V506.44L68.162 506.08V518.905C69.272 518.485 70.382 518.14 71.492 517.87C72.632 517.6 73.802 517.465 75.002 517.465C77.282 517.465 79.037 517.885 80.267 518.725C81.527 519.565 82.412 520.78 82.922 522.37C83.432 523.96 83.687 525.895 83.687 528.175V541H82.157V528.985C82.157 526.645 81.932 524.74 81.482 523.27C81.062 521.77 80.312 520.675 79.232 519.985C78.182 519.265 76.682 518.905 74.732 518.905C73.922 518.905 73.097 518.98 72.257 519.13C71.417 519.28 70.637 519.46 69.917 519.67C69.197 519.88 68.612 520.105 68.162 520.345V541H66.632ZM101.448 541.315C98.928 541.315 96.828 540.865 95.148 539.965C93.498 539.065 92.268 537.7 91.458 535.87C90.648 534.04 90.243 531.73 90.243 528.94C90.243 526.99 90.618 525.13 91.368 523.36C92.118 521.59 93.228 520.15 94.698 519.04C96.168 517.93 97.998 517.375 100.188 517.375C102.198 517.375 103.848 517.84 105.138 518.77C106.428 519.7 107.388 520.96 108.018 522.55C108.678 524.11 109.008 525.85 109.008 527.77C109.008 528.04 108.993 528.325 108.963 528.625C108.963 528.895 108.948 529.165 108.918 529.435H91.863C91.923 533.005 92.733 535.645 94.293 537.355C95.883 539.035 98.283 539.875 101.493 539.875C102.543 539.875 103.578 539.755 104.598 539.515C105.618 539.245 106.428 538.93 107.028 538.57L107.388 539.92C106.758 540.31 105.888 540.64 104.778 540.91C103.668 541.18 102.558 541.315 101.448 541.315ZM91.863 528.085H107.388C107.388 526.045 107.103 524.335 106.533 522.955C105.963 521.575 105.138 520.54 104.058 519.85C102.978 519.16 101.688 518.815 100.188 518.815C98.418 518.815 96.933 519.265 95.733 520.165C94.533 521.035 93.618 522.175 92.988 523.585C92.358 524.995 91.983 526.495 91.863 528.085ZM123.139 541.27C121.189 541.27 119.539 541.015 118.189 540.505C116.869 539.965 115.879 539.17 115.219 538.12C114.559 537.07 114.229 535.765 114.229 534.205C114.229 532.705 114.574 531.445 115.264 530.425C115.954 529.405 116.989 528.64 118.369 528.13C119.779 527.62 121.534 527.365 123.634 527.365C124.534 527.365 125.494 527.455 126.514 527.635C127.534 527.785 128.389 527.98 129.079 528.22V526.465C129.079 524.665 128.854 523.21 128.404 522.1C127.984 520.96 127.279 520.135 126.289 519.625C125.329 519.085 124.024 518.815 122.374 518.815C121.414 518.815 120.424 518.92 119.404 519.13C118.414 519.31 117.619 519.55 117.019 519.85L116.794 518.41C117.574 518.08 118.444 517.825 119.404 517.645C120.364 517.465 121.444 517.375 122.644 517.375C124.504 517.375 126.019 517.705 127.189 518.365C128.359 518.995 129.214 519.925 129.754 521.155C130.324 522.355 130.609 523.84 130.609 525.61V540.235C129.499 540.565 128.284 540.82 126.964 541C125.674 541.18 124.399 541.27 123.139 541.27ZM123.364 539.83C124.264 539.83 125.209 539.785 126.199 539.695C127.219 539.575 128.179 539.395 129.079 539.155V529.57C128.359 529.3 127.549 529.09 126.649 528.94C125.749 528.79 124.759 528.715 123.679 528.715C121.939 528.715 120.484 528.925 119.314 529.345C118.174 529.735 117.304 530.335 116.704 531.145C116.134 531.955 115.849 532.975 115.849 534.205C115.849 536.125 116.449 537.55 117.649 538.48C118.879 539.38 120.784 539.83 123.364 539.83ZM138.439 541V519.085C139.519 518.545 140.644 518.14 141.814 517.87C143.014 517.6 144.214 517.465 145.414 517.465C146.014 517.465 146.554 517.495 147.034 517.555C147.544 517.585 148.009 517.645 148.429 517.735C148.849 517.795 149.224 517.9 149.554 518.05L149.239 519.4C148.789 519.25 148.219 519.13 147.529 519.04C146.839 518.95 146.104 518.905 145.324 518.905C144.424 518.905 143.494 519.01 142.534 519.22C141.604 519.4 140.749 519.67 139.969 520.03V541H138.439ZM161.188 541.27C159.598 541.27 158.278 541.015 157.228 540.505C156.178 539.965 155.398 539.095 154.888 537.895C154.408 536.665 154.168 535.045 154.168 533.035V510.715L155.698 510.355V517.915H165.103V519.265H155.698V533.26C155.698 534.97 155.908 536.305 156.328 537.265C156.748 538.195 157.363 538.855 158.173 539.245C158.983 539.635 159.988 539.83 161.188 539.83C162.088 539.83 162.943 539.71 163.753 539.47C164.593 539.23 165.253 538.975 165.733 538.705L166.138 540.055C165.508 540.385 164.743 540.67 163.843 540.91C162.943 541.15 162.058 541.27 161.188 541.27ZM187.998 541.315C187.308 541.315 186.528 541.255 185.658 541.135C184.788 541.045 183.933 540.925 183.093 540.775C182.253 540.595 181.548 540.415 180.978 540.235V506.44L182.508 506.08V519.625C183.228 519.025 184.233 518.5 185.523 518.05C186.843 517.6 188.193 517.375 189.573 517.375C191.733 517.375 193.578 517.885 195.108 518.905C196.638 519.895 197.793 521.29 198.573 523.09C199.383 524.86 199.788 526.9 199.788 529.21C199.788 531.73 199.353 533.905 198.483 535.735C197.613 537.535 196.308 538.915 194.568 539.875C192.828 540.835 190.638 541.315 187.998 541.315ZM188.133 539.875C190.383 539.875 192.243 539.455 193.713 538.615C195.213 537.745 196.323 536.515 197.043 534.925C197.793 533.335 198.168 531.43 198.168 529.21C198.168 527.68 197.973 526.285 197.583 525.025C197.223 523.735 196.668 522.64 195.918 521.74C195.198 520.81 194.313 520.09 193.263 519.58C192.213 519.07 190.998 518.815 189.618 518.815C188.118 518.815 186.723 519.07 185.433 519.58C184.173 520.06 183.198 520.6 182.508 521.2V539.245C183.288 539.455 184.188 539.62 185.208 539.74C186.228 539.83 187.203 539.875 188.133 539.875ZM216.409 541.315C213.889 541.315 211.789 540.865 210.109 539.965C208.459 539.065 207.229 537.7 206.419 535.87C205.609 534.04 205.204 531.73 205.204 528.94C205.204 526.99 205.579 525.13 206.329 523.36C207.079 521.59 208.189 520.15 209.659 519.04C211.129 517.93 212.959 517.375 215.149 517.375C217.159 517.375 218.809 517.84 220.099 518.77C221.389 519.7 222.349 520.96 222.979 522.55C223.639 524.11 223.969 525.85 223.969 527.77C223.969 528.04 223.954 528.325 223.924 528.625C223.924 528.895 223.909 529.165 223.879 529.435H206.824C206.884 533.005 207.694 535.645 209.254 537.355C210.844 539.035 213.244 539.875 216.454 539.875C217.504 539.875 218.539 539.755 219.559 539.515C220.579 539.245 221.389 538.93 221.989 538.57L222.349 539.92C221.719 540.31 220.849 540.64 219.739 540.91C218.629 541.18 217.519 541.315 216.409 541.315ZM206.824 528.085H222.349C222.349 526.045 222.064 524.335 221.494 522.955C220.924 521.575 220.099 520.54 219.019 519.85C217.939 519.16 216.649 518.815 215.149 518.815C213.379 518.815 211.894 519.265 210.694 520.165C209.494 521.035 208.579 522.175 207.949 523.585C207.319 524.995 206.944 526.495 206.824 528.085ZM238.1 541.27C236.15 541.27 234.5 541.015 233.15 540.505C231.83 539.965 230.84 539.17 230.18 538.12C229.52 537.07 229.19 535.765 229.19 534.205C229.19 532.705 229.535 531.445 230.225 530.425C230.915 529.405 231.95 528.64 233.33 528.13C234.74 527.62 236.495 527.365 238.595 527.365C239.495 527.365 240.455 527.455 241.475 527.635C242.495 527.785 243.35 527.98 244.04 528.22V526.465C244.04 524.665 243.815 523.21 243.365 522.1C242.945 520.96 242.24 520.135 241.25 519.625C240.29 519.085 238.985 518.815 237.335 518.815C236.375 518.815 235.385 518.92 234.365 519.13C233.375 519.31 232.58 519.55 231.98 519.85L231.755 518.41C232.535 518.08 233.405 517.825 234.365 517.645C235.325 517.465 236.405 517.375 237.605 517.375C239.465 517.375 240.98 517.705 242.15 518.365C243.32 518.995 244.175 519.925 244.715 521.155C245.285 522.355 245.57 523.84 245.57 525.61V540.235C244.46 540.565 243.245 540.82 241.925 541C240.635 541.18 239.36 541.27 238.1 541.27ZM238.325 539.83C239.225 539.83 240.17 539.785 241.16 539.695C242.18 539.575 243.14 539.395 244.04 539.155V529.57C243.32 529.3 242.51 529.09 241.61 528.94C240.71 528.79 239.72 528.715 238.64 528.715C236.9 528.715 235.445 528.925 234.275 529.345C233.135 529.735 232.265 530.335 231.665 531.145C231.095 531.955 230.81 532.975 230.81 534.205C230.81 536.125 231.41 537.55 232.61 538.48C233.84 539.38 235.745 539.83 238.325 539.83ZM260.285 541.27C258.695 541.27 257.375 541.015 256.325 540.505C255.275 539.965 254.495 539.095 253.985 537.895C253.505 536.665 253.265 535.045 253.265 533.035V510.715L254.795 510.355V517.915H264.2V519.265H254.795V533.26C254.795 534.97 255.005 536.305 255.425 537.265C255.845 538.195 256.46 538.855 257.27 539.245C258.08 539.635 259.085 539.83 260.285 539.83C261.185 539.83 262.04 539.71 262.85 539.47C263.69 539.23 264.35 538.975 264.83 538.705L265.235 540.055C264.605 540.385 263.84 540.67 262.94 540.91C262.04 541.15 261.155 541.27 260.285 541.27ZM274.241 541.315C273.221 541.315 272.066 541.195 270.776 540.955C269.516 540.715 268.511 540.4 267.761 540.01L268.211 538.57C269.201 539.02 270.206 539.35 271.226 539.56C272.276 539.77 273.431 539.875 274.691 539.875C276.641 539.875 278.156 539.47 279.236 538.66C280.346 537.85 280.901 536.725 280.901 535.285C280.901 534.415 280.721 533.68 280.361 533.08C280.001 532.48 279.356 531.925 278.426 531.415C277.526 530.875 276.221 530.29 274.511 529.66C272.891 529.03 271.616 528.43 270.686 527.86C269.786 527.26 269.156 526.6 268.796 525.88C268.436 525.13 268.256 524.26 268.256 523.27C268.256 522.07 268.556 521.035 269.156 520.165C269.756 519.265 270.596 518.575 271.676 518.095C272.786 517.615 274.076 517.375 275.546 517.375C276.656 517.375 277.751 517.48 278.831 517.69C279.911 517.9 280.781 518.185 281.441 518.545L281.081 519.895C280.331 519.565 279.476 519.31 278.516 519.13C277.556 518.92 276.566 518.815 275.546 518.815C273.806 518.815 272.426 519.205 271.406 519.985C270.386 520.735 269.876 521.77 269.876 523.09C269.876 523.87 270.011 524.545 270.281 525.115C270.581 525.685 271.136 526.225 271.946 526.735C272.786 527.215 273.986 527.755 275.546 528.355C277.316 529.045 278.711 529.72 279.731 530.38C280.751 531.01 281.471 531.7 281.891 532.45C282.311 533.2 282.521 534.085 282.521 535.105C282.521 536.425 282.191 537.55 281.531 538.48C280.901 539.41 279.971 540.115 278.741 540.595C277.511 541.075 276.011 541.315 274.241 541.315Z" fill="black"/>
<path fill-rule="evenodd" clip-rule="evenodd" d="M130.073 0.217593C130.264 0.697254 133.578 6.28136 137.438 12.6262L144.458 24.1624L142.457 24.5067C137.839 25.302 133.588 29.4799 133.588 33.2243C133.588 40.9505 145.981 40.4775 149.457 32.6184C150.627 29.9742 150.627 29.8886 149.499 27.35C148.869 25.9305 146.261 21.4022 143.703 17.2862C141.145 13.1703 139.053 9.7082 139.053 9.59284C139.053 9.47748 139.859 9.20607 140.845 8.98992C141.831 8.77317 144.716 7.79502 147.259 6.81626C149.801 5.83751 152.82 5.03666 153.967 5.03666C155.115 5.03666 156.053 4.82477 156.053 4.5649C156.053 4.30564 154.923 3.3609 153.542 2.46472C149.996 0.16599 146.904 -0.121808 141.787 1.36939C136.18 3.00388 134.435 2.93526 131.868 0.976548C130.691 0.079157 129.883 -0.262675 130.073 0.217593ZM129.588 12.302C123.257 15.3919 117.167 21.5236 116.059 25.9232C114.945 30.3482 116.571 34.6506 120.064 36.52C123.344 38.276 129.84 36.7374 132.192 33.6481C134.479 30.6445 131.972 26.2875 127.957 26.2875C124.008 26.2875 121.726 30.8649 124.271 33.6773C125.087 34.5783 125.112 34.7878 124.406 34.7878C122.042 34.7878 119.016 30.8685 119.016 27.8054C119.016 26.1083 120.256 23.3889 122.298 20.6086C123.751 18.6299 132.297 12.0148 134.166 11.421C135.338 11.0494 135.94 9.88732 134.954 9.89946C134.704 9.90311 132.289 10.9839 129.588 12.302ZM112.365 17.4502C111.205 18.8479 111.825 21.0968 113.433 21.3251C116.119 21.7058 117.474 19.367 115.634 17.5267C114.444 16.3378 113.311 16.3111 112.365 17.4502ZM165.245 24.0829C159.369 26.2091 160.672 33.6087 166.913 33.5546C169.801 33.5291 171.525 31.3573 171.038 28.3567C170.659 26.027 171.163 25.7471 172.692 27.4368C174.156 29.0549 174.749 31.6943 174.205 34.1806C173.303 38.3014 165.987 43.3476 156.902 46.1145C154.074 46.9754 153.655 47.2462 154.908 47.4035C159.233 47.9469 168.573 44.4496 173.519 40.4356C176.721 37.8376 178.013 35.4278 178.013 32.0556C178.013 25.2425 172.152 21.5832 165.245 24.0829ZM110.256 24.8127C109.731 25.3379 109.302 26.0015 109.302 26.2875C109.302 27.2219 111.183 28.7161 112.359 28.7161C113.324 28.7161 114.766 27.129 114.766 26.0671C114.766 25.4326 112.819 23.8588 112.034 23.8588C111.581 23.8588 110.781 24.2881 110.256 24.8127ZM179.278 35.1788C178.86 35.3531 178.519 36.123 178.519 36.8892C178.519 39.5905 181.581 40.5395 183.004 38.279C184.255 36.293 181.698 34.1661 179.278 35.1788ZM174.883 42.667C174.373 43.6202 174.493 44.1199 175.469 45.0956C176.145 45.7714 176.951 46.3239 177.261 46.3239C178.076 46.3239 179.733 44.5449 179.733 43.67C179.733 41.4441 175.955 40.6633 174.883 42.667ZM62.4231 48.7155C58.3411 50.0209 55.264 53.6136 55.264 57.075C55.264 58.041 57.1298 62.1977 59.5706 66.6682C61.9392 71.007 64.74 76.1868 65.794 78.1783C67.7352 81.8455 73.1644 88.1279 73.8232 87.4691C74.0205 87.2724 71.182 81.6907 67.516 75.0659L60.8499 63.021L63.2579 62.5905C66.6532 61.9833 69.3575 60.1345 70.9216 57.3519C72.6836 54.2171 72.6156 52.8079 70.5949 50.5462C68.7692 48.5031 65.4285 47.7544 62.4231 48.7155ZM123.589 55.5832C122.309 58.0046 119.434 63.4005 117.2 67.5747C114.966 71.749 112.232 76.8814 111.124 78.9804L109.11 82.7958L111.179 84.7855C112.318 85.8796 116.899 90.4922 121.361 95.0356L129.474 103.297L127.549 104.291C124.817 105.704 122.047 110.302 122.072 113.383C122.097 116.631 123.344 118.212 125.879 118.212C129.845 118.212 134.196 113.064 134.196 108.373C134.196 105.14 133.944 104.812 122.831 93.5651L114.616 85.2505L122.129 71.2803C129.474 57.6209 129.664 57.3391 130.657 58.6306C131.215 59.3567 131.514 60.2062 131.322 60.5177C131.129 60.8285 131.238 60.919 131.563 60.718C131.889 60.517 135.005 63.2377 138.488 66.7648C142.355 70.6798 144.517 73.2912 144.039 73.4697C141.044 74.5918 137.231 80.219 137.231 83.5189C137.231 84.3969 137.866 85.8528 138.642 86.7545C139.917 88.2366 140.281 88.3446 142.437 87.8771C143.748 87.593 145.16 87.3866 145.573 87.4175C145.987 87.4485 146.172 87.2263 145.985 86.9233C145.798 86.6197 146.34 85.5456 147.19 84.5353C149.062 82.3106 150.276 78.542 149.769 76.525C149.565 75.7095 147.274 72.7727 144.681 69.9985C142.086 67.2238 140.039 64.7035 140.131 64.3974C140.222 64.092 140.06 63.9882 139.769 64.1673C139.48 64.3471 136.29 61.4982 132.682 57.8376C129.075 54.1764 126.076 51.1812 126.019 51.1812C125.962 51.1812 124.868 53.1618 123.589 55.5832ZM209.782 51.7981C209.571 52.1375 209.103 52.2323 208.741 52.0082C208.378 51.7842 208.247 51.868 208.449 52.194C208.786 52.7405 205.489 56.9852 197.772 65.9384L194.735 69.4624L192.85 67.6452C190.405 65.2875 188.086 64.4497 184.593 64.6622L181.766 64.8334L181.636 67.3477C181.528 69.4393 181.82 70.1752 183.377 71.732C185.105 73.4606 188.374 74.8492 190.732 74.8571C191.271 74.8589 192.396 74.3234 193.231 73.6664C194.066 73.0095 194.967 72.6676 195.231 72.9075C195.497 73.1467 195.544 73.0447 195.337 72.681C194.907 71.9239 200.771 64.7636 201.632 64.9943C201.944 65.0775 202.129 64.9026 202.046 64.6051C201.858 63.9354 208.363 55.9578 208.915 56.1807C219.493 60.4533 232.545 66.1825 232.55 66.5553C232.553 66.8297 232.215 67.4132 231.797 67.8522C231.38 68.2912 228.864 71.2821 226.205 74.4995L221.372 80.3483L219.993 78.5857C218.551 76.7423 214.684 74.8607 212.339 74.8607C209.077 74.8607 207.303 77.9925 208.888 80.953C209.855 82.76 214.488 85.1825 216.975 85.1825C219.394 85.1825 219.603 85.0204 224.591 79.2645C226.388 77.191 228.065 75.6221 228.317 75.7781C228.57 75.9342 228.739 75.6938 228.693 75.2439C228.647 74.7933 230.87 71.7848 233.632 68.5577C237.827 63.6567 238.477 62.6245 237.579 62.2948C236.987 62.078 230.657 59.4885 223.511 56.5407C216.364 53.5929 210.438 51.1812 210.341 51.1812C210.243 51.1812 209.991 51.4587 209.782 51.7981ZM168.449 92.7241C166.116 93.7399 163.947 96.4266 163.947 98.2997C163.947 99.0799 164.443 100.614 165.049 101.71C172.611 115.38 174.532 118.612 175.806 119.81C177.73 121.617 178.389 120.968 176.868 118.764C174.954 115.989 168.197 103.55 168.197 102.801C168.197 102.422 168.458 102.273 168.777 102.47C169.631 102.998 173.29 101.316 174.789 99.7071C175.644 98.7903 176.09 97.5226 176.09 96.0125C176.09 94.0811 175.804 93.5663 174.299 92.7879C172.131 91.6671 170.908 91.6537 168.449 92.7241ZM189.885 106.282C189.021 109.204 186.089 119.065 183.37 128.195C180.652 137.326 178.516 144.879 178.625 144.98C178.734 145.082 185.026 147.274 192.609 149.852C204.674 153.954 206.285 154.65 205.512 155.423C202.664 158.27 204.583 164.339 208.729 165.602C210.684 166.198 213.734 163.081 213.734 160.487C213.734 158.218 212.309 155.258 210.844 154.486C210.263 154.179 204.083 151.995 197.11 149.632C190.137 147.269 184.327 145.232 184.2 145.104C183.982 144.886 185.499 139.323 188.339 129.923C189.074 127.493 189.873 125.891 190.277 126.038C190.656 126.176 194.737 127.602 199.347 129.207C203.958 130.812 207.459 132.293 207.127 132.497C205.844 133.291 205.206 136.257 205.833 138.52C206.658 141.497 207.089 142.068 209.081 142.826C213.613 144.549 216.694 138.333 213.582 133.741C212.341 131.909 211.217 131.393 201.287 128.103C195.276 126.112 190.29 124.429 190.208 124.364C189.96 124.17 195.612 104.947 196.037 104.536C196.253 104.327 199.397 105.156 203.023 106.38C208.691 108.291 209.482 108.715 208.656 109.401C205.496 112.023 208.088 119.791 212.122 119.791C216.136 119.791 217.797 112.293 214.454 109.268C213.553 108.453 193.146 100.971 191.819 100.969C191.619 100.969 190.75 103.36 189.885 106.282ZM251.682 104.255C250.68 104.7 249.224 105.754 248.447 106.597C247.201 107.948 246.788 108.063 244.965 107.56C241.037 106.475 236.601 108.737 234.452 112.92C233.463 114.846 233.609 116.486 235.014 119.241C236.463 122.081 239.672 124.489 247.094 128.303C250.031 129.812 252.924 131.451 253.523 131.946C254.46 132.72 254.652 132.724 254.904 131.976C255.065 131.498 256.397 128.903 257.866 126.208C262.98 116.827 263.218 116.17 263.218 111.477C263.218 107.745 263.022 106.927 261.868 105.852C259.192 103.359 255.13 102.722 251.682 104.255ZM279.653 111.442C279.478 112.528 279.06 116.421 278.725 120.095C277.394 134.637 276.258 146.324 275.946 148.693L275.618 151.182L273.34 150.574C272.087 150.24 270.037 150.159 268.783 150.394C266.207 150.877 263.003 153.486 262.747 155.31C262.653 155.978 262.335 156.934 262.041 157.435C261.746 157.936 261.724 158.149 261.991 157.908C262.258 157.667 263.266 158.134 264.231 158.946C267.567 161.753 273.279 161.532 276.141 158.486C277.247 157.308 277.6 155.704 278.38 148.306C278.889 143.476 279.306 138.892 279.307 138.12L279.308 136.716L282.386 138.391C284.079 139.312 286.253 140.965 287.218 142.064C289.028 144.126 290.56 148.433 290 149.89C289.826 150.345 289.93 150.871 290.233 151.058C290.982 151.52 292.059 149.374 292.059 147.417C292.059 146.538 292.358 145.26 292.724 144.576C293.359 143.39 294.173 137.475 294.889 128.853C295.161 125.571 294.977 124.298 293.858 121.696C292.394 118.293 288.658 114.549 284.988 112.807C283.787 112.237 282.669 111.253 282.503 110.62C281.986 108.643 280.012 109.212 279.653 111.442ZM67.9173 114.947C66.6951 115.592 65.0521 116.943 64.2658 117.947C62.9027 119.688 62.7273 119.742 60.4376 119.11C57.1468 118.201 53.349 118.839 50.2628 120.82C48.8389 121.733 47.4491 122.415 47.1741 122.335C46.8984 122.255 46.8365 122.453 47.0357 122.775C47.2342 123.098 46.8462 124.265 46.1723 125.371C44.6307 127.899 44.6094 130.733 46.1091 133.628C47.4133 136.144 50.4067 140.312 50.4067 139.611C50.4067 139.362 51.3101 139.847 52.4145 140.69C53.519 141.532 57.0029 143.499 60.1559 145.061C63.3095 146.622 67.329 148.816 69.0885 149.936C70.8487 151.055 72.502 151.971 72.7637 151.971C73.0254 151.971 73.7066 150.671 74.2774 149.082C74.8487 147.494 75.9143 145.24 76.6453 144.073C77.3769 142.907 77.9908 141.816 78.0102 141.649C78.0297 141.482 79.0315 139.569 80.2367 137.399C86.145 126.759 85.8129 118.29 79.3502 114.807C76.6599 113.357 70.7898 113.43 67.9173 114.947ZM281.241 119.024C281.371 120.149 282.093 121.08 283.475 121.908C286.379 123.648 290.827 127.672 292.208 129.809L293.385 131.631L292.999 128.898C292.454 125.043 290.273 122.091 286.094 119.552C281.744 116.91 280.987 116.827 281.241 119.024ZM280.522 129.088C280.522 130.973 280.87 131.404 284.014 133.413C287.387 135.571 290.835 139.464 290.853 141.139C290.861 141.756 291.002 141.733 291.436 141.047C291.75 140.549 291.883 139.524 291.73 138.77C291.577 138.016 291.315 136.737 291.148 135.928C290.56 133.078 285.734 128.648 281.889 127.429C280.652 127.036 280.522 127.194 280.522 129.088ZM98.516 155.637C92.5767 159.043 90.1529 164.419 92.9526 167.979C95.9817 171.83 103.771 168.401 101.134 164.377C100.602 163.565 99.6454 162.9 99.009 162.9C97.3011 162.9 95.7953 164.684 96.1111 166.335C96.465 168.186 95.6235 168.151 94.3867 166.264C92.4978 163.381 94.7249 159.37 100.097 155.979C102.517 154.451 103.149 153.786 102.168 153.798C101.917 153.801 100.274 154.628 98.516 155.637ZM89.4863 158.342C89.2762 158.89 89.3952 159.63 89.751 159.985C90.6763 160.911 92.4286 160.065 92.1869 158.81C91.918 157.413 89.9726 157.075 89.4863 158.342ZM120.961 161.81C118.711 162.408 118.102 163.416 118.656 165.624C119.205 167.807 121.906 168.373 123.339 166.605C123.933 165.87 124.268 164.872 124.082 164.388C123.896 163.903 124.053 163.507 124.431 163.507C125.494 163.507 126.344 166.357 125.744 167.909C124.906 170.08 122.561 171.9 118.049 173.883C114.001 175.662 113.947 175.713 116.486 175.369C119.819 174.917 124.273 172.66 126.538 170.273C128.066 168.665 128.248 168.098 127.952 165.893C127.766 164.5 127.367 163.115 127.068 162.815C126.038 161.786 122.959 161.279 120.961 161.81ZM88.2816 162.567C87.8463 163.701 88.482 164.721 89.6235 164.721C90.8645 164.721 91.448 162.894 90.4164 162.24C89.2088 161.476 88.6684 161.559 88.2816 162.567ZM128.723 168.678C127.831 169.752 128.451 170.793 129.981 170.793C130.733 170.793 131.16 170.376 131.16 169.644C131.16 168.174 129.641 167.572 128.723 168.678ZM126.302 173.186C126.302 174.821 127.451 175.369 128.557 174.262C129.664 173.156 129.116 172.007 127.481 172.007C126.719 172.007 126.302 172.424 126.302 173.186ZM105.509 180.052C103.939 183.141 101.243 188.358 99.5166 191.644L96.3776 197.62L103.891 205.152L111.405 212.684L109.183 214.514C104.427 218.435 104.943 225.496 109.871 223.932C110.519 223.726 111.885 222.605 112.907 221.441C114.35 219.798 114.766 218.753 114.766 216.774C114.766 214.324 114.476 213.931 107.416 206.855L100.066 199.488L105.679 189.134C110.522 180.2 111.426 178.875 112.27 179.467C112.808 179.845 115.375 182.378 117.975 185.095L122.702 190.036L120.252 192.486C118.103 194.636 117.802 195.279 117.802 197.719C117.802 199.848 118.078 200.649 118.976 201.13C120.722 202.064 121.202 201.934 123.512 199.907C125.869 197.837 127.183 194.69 126.47 192.823C125.89 191.307 109.847 174.438 108.984 174.437C108.641 174.437 107.078 176.964 105.509 180.052ZM175.179 190.458C174.177 190.904 172.412 192.243 171.256 193.434C170.1 194.625 168.932 195.462 168.661 195.294C168.389 195.127 168.242 195.228 168.333 195.52C168.425 195.811 165.666 199.086 162.201 202.798L155.901 209.546L154.55 207.018C153.807 205.628 151.653 202.34 149.762 199.712C147.872 197.083 146.168 194.214 145.975 193.336C145.783 192.458 145.543 191.467 145.443 191.133C145.103 190.003 143.127 195.364 142.84 198.196C142.492 201.625 143.424 204.618 146.179 208.924C149.91 214.757 150.21 215.942 148.778 219.18C148.097 220.721 147.648 222.092 147.781 222.225C147.915 222.359 150.582 219.796 153.709 216.53C156.835 213.264 162.013 207.853 165.215 204.506L171.038 198.419L172.501 201.432C174.071 204.663 176.672 206.803 180.381 207.914C183.151 208.744 185.199 208.293 187.446 206.359C188.938 205.075 189.14 204.486 189.112 201.513C189.086 198.767 188.737 197.641 187.264 195.542C184.263 191.268 178.658 188.911 175.179 190.458Z" fill="#D6A49B" fill-opacity="0.44"/>
<path fill-rule="evenodd" clip-rule="evenodd" d="M327.39 201.995C323.26 203.633 317.697 208.45 318.477 209.712C318.82 210.268 318.696 210.722 318.201 210.722C317.69 210.722 317.618 212.779 318.034 215.472C318.437 218.085 318.6 220.4 318.395 220.618C318.191 220.836 316.102 219.743 313.753 218.188C304.171 211.846 283.297 211.191 268.611 216.771C265.895 217.803 263.223 218.37 262.673 218.03C262.11 217.682 261.985 217.916 262.388 218.567C262.78 219.202 262.727 219.722 262.271 219.722C260.785 219.722 248.048 229.453 248.691 230.097C249.035 230.441 248.809 230.722 248.188 230.722C247.568 230.722 246.577 228.926 245.986 226.731C245.395 224.537 243.856 221.686 242.567 220.397C240.336 218.165 239.871 218.098 232.853 218.986C224.669 220.021 221.346 221.681 215.569 227.62C212.192 231.091 211.592 232.398 211.199 237.136C210.499 245.578 211.529 248.776 216.143 252.472C218.374 254.259 221.302 255.722 222.65 255.722C223.998 255.722 224.831 256.159 224.501 256.693C223.52 258.28 228.915 259.074 231.787 257.765C234.316 256.613 234.367 256.643 232.844 258.388C231.964 259.397 231.434 260.743 231.666 261.379C231.898 262.016 230.939 266.053 229.535 270.352C226.673 279.116 226.074 292.332 228.105 301.923C229.472 308.377 235.138 320.647 237.91 323.156C239.024 324.164 239.652 325.449 239.305 326.01C238.915 326.642 239.179 326.719 239.998 326.212C240.991 325.599 241.142 325.866 240.6 327.277C240.203 328.313 240.178 328.86 240.546 328.493C241.378 327.66 246.918 332.939 246.304 333.979C246.058 334.395 246.672 335.037 247.67 335.405C248.667 335.772 250.496 337.142 251.733 338.449C252.971 339.756 253.983 340.583 253.983 340.288C253.983 339.993 255.446 340.643 257.233 341.733C259.021 342.823 261.059 343.716 261.764 343.718C262.468 343.72 266.226 345.525 270.114 347.728C274.002 349.932 278.224 351.995 279.496 352.315C282.029 352.95 281.678 351.536 286.119 378.979C288.684 394.827 289.335 393.145 278.483 398.712C266.563 404.826 257.186 410.956 258.886 411.523C259.512 411.732 261.726 411.015 263.806 409.931C267.169 408.178 267.803 408.122 269.535 409.422C276.33 414.522 295.939 421.722 303.035 421.722H306.983V416.639C306.983 410.829 308.789 410.274 310.534 415.548C312.284 420.839 313.2 421.152 318.722 418.354C326.485 414.42 333.935 406.874 338.983 397.831L343.483 389.769L349.483 389.73C353.732 389.703 355.045 389.409 353.983 388.722C353.158 388.189 346.408 387.739 338.983 387.722C331.558 387.705 325.004 387.361 324.42 386.957C323.422 386.268 314.983 353.717 314.983 350.559C314.983 349.285 319.458 345.492 326.59 340.722C327.823 339.897 330.504 337.322 332.547 334.999C334.59 332.677 336.719 331.059 337.277 331.404C337.835 331.749 337.999 331.557 337.641 330.977C337.283 330.398 338.451 328.641 340.236 327.073C342.022 325.505 343.485 323.997 343.487 323.722C343.492 323.11 348.133 316.417 349.035 315.722C350.452 314.629 351.936 310.742 354.016 302.674C356.908 291.449 356.211 278.987 352.228 270.722C350.77 267.697 349.161 264.935 348.652 264.584C348.143 264.233 348.043 263.434 348.429 262.809C348.816 262.184 348.622 261.796 347.999 261.947C347.376 262.098 346.247 260.467 345.491 258.322C344.734 256.177 343.523 254.046 342.799 253.587C342.075 253.128 341.851 252.746 342.301 252.737C342.751 252.729 342.16 251.375 340.988 249.729C339.816 248.083 339.18 246.213 339.574 245.574C339.995 244.894 339.857 244.682 339.242 245.062C338.665 245.419 337.949 245.075 337.651 244.299C337.06 242.759 338.918 241.728 342.315 241.711C343.507 241.705 346.34 239.925 348.609 237.754C350.878 235.583 353.053 234.126 353.442 234.515C353.831 234.904 354.039 234.772 353.905 234.222C353.77 233.672 354.179 231.965 354.813 230.429C356.139 227.218 355.705 216.562 354.078 212.397C352.964 209.543 351.694 208.048 348.831 206.222C347.969 205.672 346.02 204.347 344.501 203.277C341.153 200.919 331.855 200.223 327.39 201.995ZM327.983 203.342C323.593 205.637 321.849 207.155 320.38 209.957C318.231 214.058 320.25 220.919 324.976 225.574C327.013 227.58 328.97 230.038 329.324 231.035C329.698 232.088 330.456 232.548 331.13 232.131C331.847 231.688 332.022 231.849 331.588 232.553C331.193 233.191 332.238 235.017 333.968 236.707C337.797 240.45 341.748 240.632 345.767 237.25C347.383 235.89 348.926 234.998 349.196 235.268C349.465 235.538 350.726 233.798 351.997 231.402C354.021 227.587 354.177 226.526 353.25 222.878C352.669 220.586 352.579 218.472 353.05 218.18C355.74 216.518 346.189 205.621 340.483 203.841C335.178 202.186 330.547 202.001 327.983 203.342ZM279.983 216.173C275.858 216.883 272.371 217.578 272.233 217.718C272.095 217.857 271.645 218.047 271.233 218.14C267.859 218.894 262.928 221.084 261.95 222.262C261.293 223.053 260.281 223.406 259.7 223.047C259.035 222.636 258.887 223.03 259.302 224.11C259.69 225.122 259.558 225.577 258.979 225.22C258.076 224.662 248.983 232.74 248.983 234.1C248.983 234.43 248.219 235.591 247.285 236.682C242.903 241.8 234.635 258.351 235.645 259.984C236.001 260.56 235.822 260.74 235.247 260.385C234.367 259.842 233.159 263.214 232.439 268.222C232.36 268.772 231.723 270.572 231.025 272.222C229.2 276.532 228.557 292.019 229.855 300.362C230.955 307.428 235.662 317.586 239.984 322.222C241.009 323.322 243.986 326.56 246.599 329.417C249.213 332.275 251.788 334.343 252.321 334.013C252.855 333.683 252.985 333.91 252.61 334.517C252.234 335.125 252.78 336.078 253.824 336.637C257.278 338.485 256.984 336.502 253.112 331.831C251.011 329.296 248.599 325.156 247.752 322.631C246.906 320.106 244.586 315.909 242.598 313.305C239.156 308.796 238.023 305.722 239.802 305.722C240.252 305.722 241.367 307.184 242.279 308.972L243.938 312.222L243.302 309.222C242.953 307.572 241.982 305.165 241.146 303.874C239.921 301.984 239.861 301.147 240.838 299.583C241.505 298.515 241.741 297.139 241.362 296.527C240.976 295.902 241.123 295.691 241.698 296.046C243.897 297.405 247.851 287.006 248.957 276.958C249.549 271.582 250.415 265.842 250.882 264.203L251.731 261.222L252.928 264.222C253.712 266.188 253.958 270.769 253.64 277.512C253.204 286.77 253.322 287.753 254.819 287.314C255.734 287.045 259.408 286.324 262.983 285.711C266.558 285.098 271.058 284.18 272.983 283.671C274.908 283.162 278.357 282.284 280.648 281.718C284.481 280.773 284.866 280.374 285.486 276.706C286.291 271.937 287.391 271.676 289.5 275.755C290.362 277.423 291.499 278.521 292.026 278.196C292.552 277.87 292.982 277.968 292.982 278.413C292.981 279.258 307.646 278.46 311.983 277.379C313.358 277.036 315.725 276.486 317.243 276.157C318.761 275.828 321.33 274.897 322.952 274.087L325.902 272.616L323.555 265.919C321.243 259.32 320.244 250.722 321.789 250.722C322.225 250.722 323.151 252.41 323.848 254.472C324.545 256.535 325.49 259.122 325.948 260.222C326.406 261.322 327.331 263.685 328.003 265.472C328.676 267.259 329.648 268.722 330.163 268.722C330.679 268.722 330.84 269.144 330.521 269.661C330.202 270.177 330.666 271.005 331.552 271.5C332.437 271.996 333.099 272.727 333.022 273.126C332.945 273.524 335.154 275.659 337.932 277.871C340.71 280.082 342.983 282.607 342.983 283.481C342.983 284.729 342.398 284.55 340.263 282.646C338.767 281.313 338.131 280.99 338.849 281.928C339.568 282.867 339.897 284.053 339.58 284.565C339.264 285.076 339.898 285.728 340.989 286.013C343.571 286.689 344.358 288.909 343.548 293.23C342.707 297.71 341.259 297.8 341.779 293.34C341.997 291.48 341.782 289.716 341.302 289.419C340.823 289.123 340.347 293.007 340.245 298.051C340.035 308.487 339.106 316.722 338.139 316.722C337.778 316.722 337.483 308.644 337.483 298.772C337.483 284.693 337.182 280.541 336.086 279.522C334.927 278.443 334.832 278.477 335.526 279.722C335.986 280.547 334.777 279.647 332.839 277.722C330.901 275.797 329.436 273.976 329.583 273.674C329.731 273.373 329.438 272.473 328.932 271.674C328.178 270.482 328.011 270.548 327.998 272.043C327.99 273.045 327.308 274.54 326.483 275.365C325.658 276.19 324.983 276.556 324.983 276.178C324.983 275.801 323.825 276.251 322.409 277.179C318.419 279.793 314.012 280.51 299.483 280.908C293.433 281.074 288.237 281.541 287.936 281.947C287.069 283.115 272.512 286.529 260.291 288.43C250.678 289.925 248.96 290.477 248.108 292.346C246.729 295.374 247.578 295.779 251.293 293.865C254.397 292.266 264.948 291.694 269.429 292.881C272.351 293.655 272.405 295.408 269.525 295.959C268.127 296.226 266.983 296.057 266.983 295.583C266.983 295.11 265.81 294.722 264.376 294.722C262.416 294.722 261.919 295.112 262.372 296.294C263.387 298.939 261.182 301.722 258.07 301.722C255.097 301.722 252.467 299.609 253.742 298.245C254.149 297.808 253.481 297.972 252.256 298.609C250.427 299.561 249.712 299.45 248.256 297.988C246.556 296.282 246.396 296.309 244.372 298.654L242.261 301.1L244.731 309.161C249.665 325.261 252.895 330.384 264.723 340.866C273.131 348.317 281.399 351.69 295.043 353.235C301.715 353.991 307.677 351.699 318.16 344.351C324.985 339.566 331.82 330.762 335.989 321.388C337.008 319.097 337.874 317.807 337.912 318.522C337.951 319.236 337.365 321.036 336.61 322.522C335.854 324.007 334.917 326.257 334.526 327.522C333.785 329.925 335.468 328.45 343.413 319.734C349.017 313.587 351.966 305.865 353.442 293.473C354.153 287.501 352.431 276.722 350.765 276.722C350.27 276.722 350.131 276.291 350.457 275.765C350.782 275.238 348.723 270.401 345.882 265.015C343.04 259.629 339.605 252.972 338.248 250.222C336.891 247.472 335.364 244.547 334.853 243.722C334.343 242.897 333.661 241.434 333.337 240.472C333.014 239.51 332.352 238.722 331.866 238.722C331.381 238.722 330.983 238.033 330.983 237.191C330.983 236.348 330.308 235.4 329.483 235.084C328.658 234.767 327.983 233.855 327.983 233.056C327.983 232.257 327.538 231.879 326.994 232.215C326.439 232.558 326.254 232.18 326.572 231.351C326.919 230.448 326.235 229.397 324.811 228.642C323.53 227.963 321.808 226.663 320.983 225.752C318.08 222.547 307.938 216.517 304.729 216.088C296.334 214.965 286.821 214.998 279.983 216.173ZM228.473 221.738C228.127 222.297 227.399 222.479 226.855 222.143C225.313 221.19 218.42 226.463 215.562 230.782C213.554 233.817 212.983 235.93 212.983 240.332C212.983 245.483 213.29 246.275 216.435 249.241C218.334 251.032 221.992 253.516 224.566 254.762C228.94 256.88 229.414 256.924 231.864 255.441C233.304 254.569 234.933 253.04 235.483 252.043C236.033 251.046 237.301 248.991 238.301 247.476C239.301 245.961 239.751 244.715 239.301 244.707C238.851 244.698 238.942 244.361 239.503 243.957C242.906 241.507 246.344 227.681 243.922 226.185C243.063 225.653 242.926 225.821 243.483 226.722C244.007 227.57 243.901 227.789 243.181 227.344C242.57 226.967 242.298 226.064 242.577 225.338C243.816 222.108 230.366 218.676 228.473 221.738ZM325.38 277.823C324.337 278.215 321.932 279.118 320.037 279.831C316.441 281.183 309.983 286.298 309.983 287.794C309.983 288.27 310.658 288.4 311.483 288.084C312.308 287.767 312.983 287.962 312.983 288.517C312.983 289.072 314.336 289.998 315.99 290.575C318.567 291.473 319.283 291.317 320.99 289.484C322.086 288.307 322.983 286.53 322.983 285.533C322.983 284.237 323.765 283.706 325.733 283.667C327.517 283.631 329.267 282.617 330.717 280.778L332.951 277.944L330.114 277.528C328.554 277.299 326.423 277.432 325.38 277.823ZM249.983 287.781C249.983 288.363 250.433 288.562 250.983 288.222C251.533 287.882 251.983 287.406 251.983 287.163C251.983 286.92 251.533 286.722 250.983 286.722C250.433 286.722 249.983 287.199 249.983 287.781ZM324.983 293.722C322.372 296.333 322.22 303.422 324.733 305.33C327.38 307.339 332.68 307.025 334.983 304.722C337.733 301.972 337.637 296.409 334.794 293.761C332.008 291.165 327.557 291.148 324.983 293.722ZM253.983 306.454C250.411 307.111 248.981 308.585 248.997 311.594C249.021 316.301 250.123 318.537 253.005 319.731C256.198 321.054 258.709 320.512 262.236 317.738C265.326 315.307 264.85 310.549 261.232 307.703C258.673 305.69 258.396 305.643 253.983 306.454ZM288.983 308.222C285.884 309.416 285.769 309.577 287.983 309.632C291.601 309.723 295.049 308.637 294.413 307.608C293.731 306.506 293.319 306.552 288.983 308.222ZM294.975 314.748C294.154 315.267 292.133 315.714 290.483 315.742C288.833 315.77 285.283 316.822 282.595 318.079L277.706 320.365L280.845 321.665C282.571 322.38 283.983 323.305 283.983 323.722C283.983 325.061 290.051 327.043 293.726 326.905C296.952 326.784 300.983 324.103 300.983 322.078C300.983 321.678 301.862 320.415 302.937 319.271C304.313 317.806 304.613 316.752 303.952 315.707C303.125 314.398 303.01 314.4 302.983 315.722C302.963 316.692 302.693 316.835 302.218 316.126C301.133 314.508 296.691 313.663 294.975 314.748ZM257.418 338.617C257.79 339.219 259.024 340.209 260.159 340.816C261.639 341.608 262.033 341.611 261.548 340.827C261.176 340.225 259.942 339.235 258.807 338.628C257.327 337.836 256.933 337.833 257.418 338.617ZM311.741 351.297C311.425 351.613 310.563 351.975 309.825 352.102C309.087 352.228 306.723 352.928 304.571 353.657C301.957 354.544 297.897 354.811 292.33 354.464C284.211 353.958 284.014 353.998 284.51 356.083C285.767 361.364 289.976 388.541 289.979 391.401C289.982 394.117 289.258 395.049 284.994 397.812C281.192 400.275 280.259 401.35 281.071 402.328C284.03 405.893 303.705 406.645 310.983 403.471C312.908 402.632 316.882 400.901 319.815 399.624C323.046 398.218 326.329 395.811 328.149 393.513L331.151 389.722L328.817 389.57C327.533 389.486 326.033 389.313 325.483 389.185C324.933 389.057 323.993 388.901 323.394 388.837C322.105 388.701 316.614 370.526 314.46 359.267C312.87 350.955 312.67 350.368 311.741 351.297Z" fill="black"/>
</svg>
