<svg width="295" height="195" viewBox="0 0 295 195" fill="none" xmlns="http://www.w3.org/2000/svg">
<path d="M42.4136 70V18.025H51.7136V62.125H67.7636V70H42.4136ZM75.0638 70V30.25H84.1388V70H75.0638ZM79.6388 23.275C78.1388 23.275 76.8388 22.775 75.7388 21.775C74.6888 20.725 74.1638 19.35 74.1638 17.65C74.1638 15.95 74.6888 14.6 75.7388 13.6C76.8388 12.55 78.1388 12.025 79.6388 12.025C81.1388 12.025 82.4388 12.55 83.5388 13.6C84.6388 14.6 85.1888 15.95 85.1888 17.65C85.1888 19.35 84.6388 20.725 83.5388 21.775C82.4388 22.775 81.1388 23.275 79.6388 23.275ZM101.516 70.975C99.6159 70.975 97.8159 70.725 96.1159 70.225C94.4159 69.775 93.0909 69.3 92.1409 68.8L93.8659 61.675C94.9159 62.275 96.0659 62.75 97.3159 63.1C98.6159 63.45 99.7909 63.625 100.841 63.625C102.441 63.625 103.641 63.25 104.441 62.5C105.241 61.7 105.641 60.725 105.641 59.575C105.641 58.625 105.441 57.8 105.041 57.1C104.691 56.4 104.066 55.7 103.166 55C102.316 54.25 101.091 53.4 99.4909 52.45C97.8909 51.45 96.5659 50.425 95.5159 49.375C94.5159 48.275 93.7909 47.075 93.3409 45.775C92.8909 44.475 92.6659 42.975 92.6659 41.275C92.6659 38.975 93.1659 36.925 94.1659 35.125C95.2159 33.275 96.6909 31.85 98.5909 30.85C100.491 29.8 102.716 29.275 105.266 29.275C107.016 29.275 108.616 29.45 110.066 29.8C111.566 30.15 112.666 30.5 113.366 30.85L111.941 37.825C110.841 37.425 109.791 37.125 108.791 36.925C107.841 36.725 106.916 36.625 106.016 36.625C104.516 36.625 103.366 36.95 102.566 37.6C101.816 38.25 101.441 39.175 101.441 40.375C101.441 41.275 101.641 42.075 102.041 42.775C102.441 43.425 103.091 44.1 103.991 44.8C104.891 45.5 106.066 46.35 107.516 47.35C109.066 48.35 110.366 49.425 111.416 50.575C112.516 51.675 113.341 52.9 113.891 54.25C114.441 55.6 114.716 57.1 114.716 58.75C114.716 61.2 114.166 63.35 113.066 65.2C111.966 67 110.416 68.425 108.416 69.475C106.466 70.475 104.166 70.975 101.516 70.975ZM133.782 70.9C131.082 70.9 128.832 70.35 127.032 69.25C125.282 68.15 123.982 66.475 123.132 64.225C122.282 61.975 121.857 59.15 121.857 55.75V20.425L130.932 18.925V30.25H140.607V37.75H130.932V56.275C130.932 57.825 131.107 59.1 131.457 60.1C131.807 61.1 132.307 61.85 132.957 62.35C133.657 62.8 134.507 63.025 135.507 63.025C136.407 63.025 137.207 62.95 137.907 62.8C138.607 62.6 139.332 62.3 140.082 61.9L141.432 68.95C140.582 69.55 139.432 70.025 137.982 70.375C136.582 70.725 135.182 70.9 133.782 70.9ZM161.749 70.975C158.349 70.975 155.424 70.175 152.974 68.575C150.574 66.975 148.749 64.65 147.499 61.6C146.249 58.55 145.624 54.875 145.624 50.575C145.624 46.025 146.199 42.175 147.349 39.025C148.499 35.875 150.149 33.475 152.299 31.825C154.449 30.125 156.949 29.275 159.799 29.275C162.699 29.275 165.099 30.075 166.999 31.675C168.949 33.275 170.424 35.575 171.424 38.575C172.474 41.525 172.999 45.075 172.999 49.225C172.999 49.925 172.974 50.625 172.924 51.325C172.924 51.975 172.899 52.65 172.849 53.35H154.924C154.974 56.45 155.699 58.85 157.099 60.55C158.499 62.25 160.599 63.1 163.399 63.1C164.699 63.1 165.949 63.025 167.149 62.875C168.399 62.675 169.449 62.375 170.299 61.975L171.349 69.1C169.949 69.75 168.449 70.225 166.849 70.525C165.299 70.825 163.599 70.975 161.749 70.975ZM154.849 46.9H164.299C164.249 44.45 164.049 42.475 163.699 40.975C163.349 39.425 162.824 38.3 162.124 37.6C161.424 36.9 160.574 36.55 159.574 36.55C158.524 36.55 157.649 36.925 156.949 37.675C156.299 38.425 155.799 39.575 155.449 41.125C155.099 42.625 154.899 44.55 154.849 46.9ZM181.631 70V31.225C183.681 30.625 185.706 30.2 187.706 29.95C189.756 29.65 191.831 29.5 193.931 29.5C197.281 29.5 200.031 30.125 202.181 31.375C204.381 32.575 206.006 34.425 207.056 36.925C208.106 39.425 208.631 42.575 208.631 46.375V70H199.556V46.825C199.556 44.425 199.356 42.55 198.956 41.2C198.606 39.8 198.006 38.8 197.156 38.2C196.306 37.55 195.156 37.225 193.706 37.225C193.256 37.225 192.781 37.275 192.281 37.375C191.781 37.425 191.256 37.525 190.706 37.675V70H181.631Z" fill="black"/>
<path d="M14.43 127.405C13.02 127.405 11.82 127.12 10.83 126.55C9.84004 125.98 9.09004 125.095 8.58004 123.895C8.07004 122.695 7.81504 121.15 7.81504 119.26V97.075L11.955 96.355V103.375H17.895V106.795H11.955V119.44C11.955 120.43 12.075 121.255 12.315 121.915C12.555 122.545 12.915 123.01 13.395 123.31C13.875 123.61 14.46 123.76 15.15 123.76C15.66 123.76 16.125 123.73 16.545 123.67C16.995 123.58 17.445 123.415 17.895 123.175L18.525 126.415C18.045 126.715 17.43 126.955 16.68 127.135C15.93 127.315 15.18 127.405 14.43 127.405ZM29.5641 127.54C27.8241 127.54 26.3241 127.06 25.0641 126.1C23.8041 125.11 22.8441 123.7 22.1841 121.87C21.5541 120.01 21.2391 117.775 21.2391 115.165C21.2391 112.525 21.5541 110.29 22.1841 108.46C22.8441 106.6 23.8041 105.19 25.0641 104.23C26.3241 103.24 27.8241 102.745 29.5641 102.745C31.3341 102.745 32.8341 103.24 34.0641 104.23C35.2941 105.19 36.2391 106.6 36.8991 108.46C37.5591 110.29 37.8891 112.525 37.8891 115.165C37.8891 117.775 37.5591 120.01 36.8991 121.87C36.2391 123.7 35.2941 125.11 34.0641 126.1C32.8341 127.06 31.3341 127.54 29.5641 127.54ZM29.5641 123.94C30.4641 123.94 31.1991 123.625 31.7691 122.995C32.3691 122.335 32.8191 121.36 33.1191 120.07C33.4491 118.78 33.6141 117.145 33.6141 115.165C33.6141 113.185 33.4491 111.55 33.1191 110.26C32.8191 108.94 32.3691 107.965 31.7691 107.335C31.1691 106.675 30.4341 106.345 29.5641 106.345C28.6641 106.345 27.9141 106.675 27.3141 107.335C26.7441 107.965 26.2941 108.94 25.9641 110.26C25.6641 111.55 25.5141 113.185 25.5141 115.165C25.5141 117.115 25.6641 118.75 25.9641 120.07C26.2941 121.36 26.7441 122.335 27.3141 122.995C27.9141 123.625 28.6641 123.94 29.5641 123.94ZM50.3154 127V104.005C51.3954 103.675 52.4904 103.42 53.6004 103.24C54.7104 103.03 55.8654 102.925 57.0654 102.925C58.2054 102.925 59.2254 103.075 60.1254 103.375C61.0254 103.675 61.7754 104.14 62.3754 104.77C62.9154 104.35 63.4704 104.005 64.0404 103.735C64.6404 103.465 65.2554 103.27 65.8854 103.15C66.5154 103 67.1454 102.925 67.7754 102.925C69.4554 102.925 70.8354 103.255 71.9154 103.915C73.0254 104.575 73.8354 105.595 74.3454 106.975C74.8854 108.325 75.1554 110.035 75.1554 112.105V127H71.0154V112.375C71.0154 110.905 70.8954 109.735 70.6554 108.865C70.4154 107.995 70.0254 107.38 69.4854 107.02C68.9754 106.63 68.2554 106.435 67.3254 106.435C66.9354 106.435 66.5454 106.495 66.1554 106.615C65.7954 106.705 65.4504 106.84 65.1204 107.02C64.7904 107.17 64.4754 107.365 64.1754 107.605C64.4154 108.265 64.5804 108.97 64.6704 109.72C64.7604 110.44 64.8054 111.235 64.8054 112.105V127H60.6654V112.375C60.6654 110.875 60.5454 109.69 60.3054 108.82C60.0654 107.95 59.6754 107.335 59.1354 106.975C58.5954 106.615 57.8454 106.435 56.8854 106.435C56.6454 106.435 56.3754 106.465 56.0754 106.525C55.8054 106.555 55.5354 106.615 55.2654 106.705C54.9954 106.765 54.7254 106.84 54.4554 106.93V127H50.3154ZM81.3784 135.46C80.7184 135.46 80.1334 135.385 79.6234 135.235C79.1134 135.115 78.7234 134.98 78.4534 134.83L79.0834 131.5C79.4134 131.65 79.7584 131.755 80.1184 131.815C80.5084 131.875 80.8534 131.905 81.1534 131.905C81.6634 131.905 82.1434 131.755 82.5934 131.455C83.0734 131.155 83.5534 130.66 84.0334 129.97C84.5134 129.28 84.9784 128.335 85.4284 127.135C84.4384 124.405 83.5534 121.735 82.7734 119.125C81.9934 116.515 81.3034 113.905 80.7034 111.295C80.1034 108.655 79.5484 106.015 79.0384 103.375H83.3584C83.5384 104.815 83.7784 106.36 84.0784 108.01C84.3784 109.63 84.7084 111.295 85.0684 113.005C85.4284 114.685 85.8034 116.32 86.1934 117.91C86.6134 119.5 87.0334 120.97 87.4534 122.32C88.0534 120.4 88.6084 118.345 89.1184 116.155C89.6584 113.965 90.1384 111.775 90.5584 109.585C90.9784 107.395 91.3084 105.325 91.5484 103.375H95.7334C95.1934 106.255 94.5934 109.075 93.9334 111.835C93.3034 114.595 92.6284 117.235 91.9084 119.755C91.1884 122.275 90.4234 124.645 89.6134 126.865C88.8334 128.965 88.0384 130.645 87.2284 131.905C86.4484 133.165 85.5784 134.065 84.6184 134.605C83.6884 135.175 82.6084 135.46 81.3784 135.46Z" fill="black"/>
<path d="M66.632 183V148.44L68.162 148.08V160.905C69.272 160.485 70.382 160.14 71.492 159.87C72.632 159.6 73.802 159.465 75.002 159.465C77.282 159.465 79.037 159.885 80.267 160.725C81.527 161.565 82.412 162.78 82.922 164.37C83.432 165.96 83.687 167.895 83.687 170.175V183H82.157V170.985C82.157 168.645 81.932 166.74 81.482 165.27C81.062 163.77 80.312 162.675 79.232 161.985C78.182 161.265 76.682 160.905 74.732 160.905C73.922 160.905 73.097 160.98 72.257 161.13C71.417 161.28 70.637 161.46 69.917 161.67C69.197 161.88 68.612 162.105 68.162 162.345V183H66.632ZM101.448 183.315C98.928 183.315 96.828 182.865 95.148 181.965C93.498 181.065 92.268 179.7 91.458 177.87C90.648 176.04 90.243 173.73 90.243 170.94C90.243 168.99 90.618 167.13 91.368 165.36C92.118 163.59 93.228 162.15 94.698 161.04C96.168 159.93 97.998 159.375 100.188 159.375C102.198 159.375 103.848 159.84 105.138 160.77C106.428 161.7 107.388 162.96 108.018 164.55C108.678 166.11 109.008 167.85 109.008 169.77C109.008 170.04 108.993 170.325 108.963 170.625C108.963 170.895 108.948 171.165 108.918 171.435H91.863C91.923 175.005 92.733 177.645 94.293 179.355C95.883 181.035 98.283 181.875 101.493 181.875C102.543 181.875 103.578 181.755 104.598 181.515C105.618 181.245 106.428 180.93 107.028 180.57L107.388 181.92C106.758 182.31 105.888 182.64 104.778 182.91C103.668 183.18 102.558 183.315 101.448 183.315ZM91.863 170.085H107.388C107.388 168.045 107.103 166.335 106.533 164.955C105.963 163.575 105.138 162.54 104.058 161.85C102.978 161.16 101.688 160.815 100.188 160.815C98.418 160.815 96.933 161.265 95.733 162.165C94.533 163.035 93.618 164.175 92.988 165.585C92.358 166.995 91.983 168.495 91.863 170.085ZM123.139 183.27C121.189 183.27 119.539 183.015 118.189 182.505C116.869 181.965 115.879 181.17 115.219 180.12C114.559 179.07 114.229 177.765 114.229 176.205C114.229 174.705 114.574 173.445 115.264 172.425C115.954 171.405 116.989 170.64 118.369 170.13C119.779 169.62 121.534 169.365 123.634 169.365C124.534 169.365 125.494 169.455 126.514 169.635C127.534 169.785 128.389 169.98 129.079 170.22V168.465C129.079 166.665 128.854 165.21 128.404 164.1C127.984 162.96 127.279 162.135 126.289 161.625C125.329 161.085 124.024 160.815 122.374 160.815C121.414 160.815 120.424 160.92 119.404 161.13C118.414 161.31 117.619 161.55 117.019 161.85L116.794 160.41C117.574 160.08 118.444 159.825 119.404 159.645C120.364 159.465 121.444 159.375 122.644 159.375C124.504 159.375 126.019 159.705 127.189 160.365C128.359 160.995 129.214 161.925 129.754 163.155C130.324 164.355 130.609 165.84 130.609 167.61V182.235C129.499 182.565 128.284 182.82 126.964 183C125.674 183.18 124.399 183.27 123.139 183.27ZM123.364 181.83C124.264 181.83 125.209 181.785 126.199 181.695C127.219 181.575 128.179 181.395 129.079 181.155V171.57C128.359 171.3 127.549 171.09 126.649 170.94C125.749 170.79 124.759 170.715 123.679 170.715C121.939 170.715 120.484 170.925 119.314 171.345C118.174 171.735 117.304 172.335 116.704 173.145C116.134 173.955 115.849 174.975 115.849 176.205C115.849 178.125 116.449 179.55 117.649 180.48C118.879 181.38 120.784 181.83 123.364 181.83ZM138.439 183V161.085C139.519 160.545 140.644 160.14 141.814 159.87C143.014 159.6 144.214 159.465 145.414 159.465C146.014 159.465 146.554 159.495 147.034 159.555C147.544 159.585 148.009 159.645 148.429 159.735C148.849 159.795 149.224 159.9 149.554 160.05L149.239 161.4C148.789 161.25 148.219 161.13 147.529 161.04C146.839 160.95 146.104 160.905 145.324 160.905C144.424 160.905 143.494 161.01 142.534 161.22C141.604 161.4 140.749 161.67 139.969 162.03V183H138.439ZM161.188 183.27C159.598 183.27 158.278 183.015 157.228 182.505C156.178 181.965 155.398 181.095 154.888 179.895C154.408 178.665 154.168 177.045 154.168 175.035V152.715L155.698 152.355V159.915H165.103V161.265H155.698V175.26C155.698 176.97 155.908 178.305 156.328 179.265C156.748 180.195 157.363 180.855 158.173 181.245C158.983 181.635 159.988 181.83 161.188 181.83C162.088 181.83 162.943 181.71 163.753 181.47C164.593 181.23 165.253 180.975 165.733 180.705L166.138 182.055C165.508 182.385 164.743 182.67 163.843 182.91C162.943 183.15 162.058 183.27 161.188 183.27ZM187.998 183.315C187.308 183.315 186.528 183.255 185.658 183.135C184.788 183.045 183.933 182.925 183.093 182.775C182.253 182.595 181.548 182.415 180.978 182.235V148.44L182.508 148.08V161.625C183.228 161.025 184.233 160.5 185.523 160.05C186.843 159.6 188.193 159.375 189.573 159.375C191.733 159.375 193.578 159.885 195.108 160.905C196.638 161.895 197.793 163.29 198.573 165.09C199.383 166.86 199.788 168.9 199.788 171.21C199.788 173.73 199.353 175.905 198.483 177.735C197.613 179.535 196.308 180.915 194.568 181.875C192.828 182.835 190.638 183.315 187.998 183.315ZM188.133 181.875C190.383 181.875 192.243 181.455 193.713 180.615C195.213 179.745 196.323 178.515 197.043 176.925C197.793 175.335 198.168 173.43 198.168 171.21C198.168 169.68 197.973 168.285 197.583 167.025C197.223 165.735 196.668 164.64 195.918 163.74C195.198 162.81 194.313 162.09 193.263 161.58C192.213 161.07 190.998 160.815 189.618 160.815C188.118 160.815 186.723 161.07 185.433 161.58C184.173 162.06 183.198 162.6 182.508 163.2V181.245C183.288 181.455 184.188 181.62 185.208 181.74C186.228 181.83 187.203 181.875 188.133 181.875ZM216.409 183.315C213.889 183.315 211.789 182.865 210.109 181.965C208.459 181.065 207.229 179.7 206.419 177.87C205.609 176.04 205.204 173.73 205.204 170.94C205.204 168.99 205.579 167.13 206.329 165.36C207.079 163.59 208.189 162.15 209.659 161.04C211.129 159.93 212.959 159.375 215.149 159.375C217.159 159.375 218.809 159.84 220.099 160.77C221.389 161.7 222.349 162.96 222.979 164.55C223.639 166.11 223.969 167.85 223.969 169.77C223.969 170.04 223.954 170.325 223.924 170.625C223.924 170.895 223.909 171.165 223.879 171.435H206.824C206.884 175.005 207.694 177.645 209.254 179.355C210.844 181.035 213.244 181.875 216.454 181.875C217.504 181.875 218.539 181.755 219.559 181.515C220.579 181.245 221.389 180.93 221.989 180.57L222.349 181.92C221.719 182.31 220.849 182.64 219.739 182.91C218.629 183.18 217.519 183.315 216.409 183.315ZM206.824 170.085H222.349C222.349 168.045 222.064 166.335 221.494 164.955C220.924 163.575 220.099 162.54 219.019 161.85C217.939 161.16 216.649 160.815 215.149 160.815C213.379 160.815 211.894 161.265 210.694 162.165C209.494 163.035 208.579 164.175 207.949 165.585C207.319 166.995 206.944 168.495 206.824 170.085ZM238.1 183.27C236.15 183.27 234.5 183.015 233.15 182.505C231.83 181.965 230.84 181.17 230.18 180.12C229.52 179.07 229.19 177.765 229.19 176.205C229.19 174.705 229.535 173.445 230.225 172.425C230.915 171.405 231.95 170.64 233.33 170.13C234.74 169.62 236.495 169.365 238.595 169.365C239.495 169.365 240.455 169.455 241.475 169.635C242.495 169.785 243.35 169.98 244.04 170.22V168.465C244.04 166.665 243.815 165.21 243.365 164.1C242.945 162.96 242.24 162.135 241.25 161.625C240.29 161.085 238.985 160.815 237.335 160.815C236.375 160.815 235.385 160.92 234.365 161.13C233.375 161.31 232.58 161.55 231.98 161.85L231.755 160.41C232.535 160.08 233.405 159.825 234.365 159.645C235.325 159.465 236.405 159.375 237.605 159.375C239.465 159.375 240.98 159.705 242.15 160.365C243.32 160.995 244.175 161.925 244.715 163.155C245.285 164.355 245.57 165.84 245.57 167.61V182.235C244.46 182.565 243.245 182.82 241.925 183C240.635 183.18 239.36 183.27 238.1 183.27ZM238.325 181.83C239.225 181.83 240.17 181.785 241.16 181.695C242.18 181.575 243.14 181.395 244.04 181.155V171.57C243.32 171.3 242.51 171.09 241.61 170.94C240.71 170.79 239.72 170.715 238.64 170.715C236.9 170.715 235.445 170.925 234.275 171.345C233.135 171.735 232.265 172.335 231.665 173.145C231.095 173.955 230.81 174.975 230.81 176.205C230.81 178.125 231.41 179.55 232.61 180.48C233.84 181.38 235.745 181.83 238.325 181.83ZM260.285 183.27C258.695 183.27 257.375 183.015 256.325 182.505C255.275 181.965 254.495 181.095 253.985 179.895C253.505 178.665 253.265 177.045 253.265 175.035V152.715L254.795 152.355V159.915H264.2V161.265H254.795V175.26C254.795 176.97 255.005 178.305 255.425 179.265C255.845 180.195 256.46 180.855 257.27 181.245C258.08 181.635 259.085 181.83 260.285 181.83C261.185 181.83 262.04 181.71 262.85 181.47C263.69 181.23 264.35 180.975 264.83 180.705L265.235 182.055C264.605 182.385 263.84 182.67 262.94 182.91C262.04 183.15 261.155 183.27 260.285 183.27ZM274.241 183.315C273.221 183.315 272.066 183.195 270.776 182.955C269.516 182.715 268.511 182.4 267.761 182.01L268.211 180.57C269.201 181.02 270.206 181.35 271.226 181.56C272.276 181.77 273.431 181.875 274.691 181.875C276.641 181.875 278.156 181.47 279.236 180.66C280.346 179.85 280.901 178.725 280.901 177.285C280.901 176.415 280.721 175.68 280.361 175.08C280.001 174.48 279.356 173.925 278.426 173.415C277.526 172.875 276.221 172.29 274.511 171.66C272.891 171.03 271.616 170.43 270.686 169.86C269.786 169.26 269.156 168.6 268.796 167.88C268.436 167.13 268.256 166.26 268.256 165.27C268.256 164.07 268.556 163.035 269.156 162.165C269.756 161.265 270.596 160.575 271.676 160.095C272.786 159.615 274.076 159.375 275.546 159.375C276.656 159.375 277.751 159.48 278.831 159.69C279.911 159.9 280.781 160.185 281.441 160.545L281.081 161.895C280.331 161.565 279.476 161.31 278.516 161.13C277.556 160.92 276.566 160.815 275.546 160.815C273.806 160.815 272.426 161.205 271.406 161.985C270.386 162.735 269.876 163.77 269.876 165.09C269.876 165.87 270.011 166.545 270.281 167.115C270.581 167.685 271.136 168.225 271.946 168.735C272.786 169.215 273.986 169.755 275.546 170.355C277.316 171.045 278.711 171.72 279.731 172.38C280.751 173.01 281.471 173.7 281.891 174.45C282.311 175.2 282.521 176.085 282.521 177.105C282.521 178.425 282.191 179.55 281.531 180.48C280.901 181.41 279.971 182.115 278.741 182.595C277.511 183.075 276.011 183.315 274.241 183.315Z" fill="black"/>
</svg>
